<svg version="1.1" xmlns="http://www.w3.org/2000/svg" viewBox="0 0 872.5111354006252 371.0596044931124" width="1745.0222708012504" height="742.1192089862247">
  <!-- svg-source:excalidraw -->
  <!-- payload-type:application/vnd.excalidraw+json --><!-- payload-version:2 --><!-- payload-start -->eyJ2ZXJzaW9uIjoiMSIsImVuY29kaW5nIjoiYnN0cmluZyIsImNvbXByZXNzZWQiOnRydWUsImVuY29kZWQiOiJ4nO1cXFtT47hcdTAwMTJ+n18xxb4uWql13zeuy51AuFxyp7ZSJjHBXHUwMDEzx1x0iVx0hK3576eVYbBxYiZhMPHM4KIgyHLUkvrT191q679cdTAwMGZcdTAwMWY/LsTDrr/w98dcdTAwMDX/ru6FQaPn3S786cpcdTAwMDd+r1x1MDAxZnRcIrxcdTAwMDWj//udm159VPMqjrv9v//6K3mC1Dvtr0/5od/2o7iP9f6H/3/8+N/od7qdMFxmun1/VH10I2nI8GzhXidcdTAwMWG1ySRcdTAwMDNcdTAwMDaagnmsXHUwMDEx9Fexsdhv4O1LL+z7yVx1MDAxZFe00Fq9Pbb7w3DpdLh9eXsjxX29f5a0elx1MDAxOYRhNVx1MDAxZYYjmfpcdTAwMWTsR3KvXHUwMDFm9zot/zRoxFeu7Ux53lO9zk3zKvL7/SfPdLpePYiHWGbpY6FcdTAwMTc1R1+RlNy5h4ApwjVTSipcdTAwMDDKpXq87Z5n1CpcIjlcdTAwMTgluMK6QmZcdTAwMDRb6YSdnlx1MDAxM+xcdTAwMGZmNatDXCLahVdvNVG+qPFYJ+55Ub/r9XCyknq3XHUwMDBmXTaGKG0llVpcdTAwMThDjYDHXHUwMDFhV37QvIpdXHUwMDE1SVx1MDAwNJeMc2k0oMQ2XHUwMDExxlx1MDAxZs2J4Fx1MDAxY0BIlfTRSdDdbIx0499kXCJ6XtvfdE9EN2GYXHUwMDFlzajxMJrfdCjRXCJ4KPmSdNHVX8tqX1pcdTAwMDOfaGHs3yX9TmnN59pur3VeM41qwLf7XHUwMDFibPvcO1x1MDAxYyw81vvy8ClcdTAwMTH/ptvwvioh01QqXHUwMDFjeVx1MDAxMIwlnVx1MDAwZYOole1b2Km3XHUwMDEyvf2Q6shcdTAwMThansiZhko+UqiQQjI1PVIm97ncSFx1MDAxMZRYLVx1MDAxMVx1MDAwM4hcdTAwMTLFXHUwMDE1PEVcblx1MDAwM0uowHGweIGhojCkcEu0cpdgwFFcdTAwMTimxqFcdTAwMDI0i1xyxlAmoEKJXHUwMDFmXHUwMDA3x5NcdTAwMWJjKMhTVMm5UEBBzaCoiVSdKK5cdTAwMDb3I3VTT0rXvXZcdTAwMTBcdTAwMGWfTOtIg3FcdTAwMTiXvfSi70qXwqDpdHmhjtL6vSdqXHUwMDFlXHUwMDA3yC2PXHUwMDE12kGjXHUwMDExpp6uY1NeXHUwMDEw+b3NaZb6Ti9oXHUwMDA2kVx1MDAxN1x1MDAxZU2UXHUwMDA0++1vfJsqRkCmdKHvu7uuXFy8XGKljOUy2mjZ1NYkXHUwMDFh8D2YXlx1MDAxZC927+L1tudtXnS7cFxcXHUwMDBiV2uy3DDlzCBcdTAwMGWVRMKSoETS168oZVxm+UxYgUyjXGaORmEoVZJwilx1MDAxN6eSaalN0ptnQFxulLp2qUlW0jmAVFx1MDAwYqFNWllcdTAwMGJcdTAwMDXppe/FNz2f5Vx1MDAwMDX0L+NnYFx1MDAxYXe6eVx1MDAxOH1cInFcdTAwMTaQ461cdTAwMTZcdEqjsoWP3Fx0ikpj1PSY9Fx1MDAwZnYv1C2y0Nr9edfXtc3rbXZXckyiXHUwMDE1qVxyoI1cdTAwMDBWUJayqFx1MDAxZkBJiaIjXHUwMDFiXHUwMDEzwaJ4vpFcdJfWXHUwMDE34uWglJpQx89cdTAwMDZ1XHUwMDFjzVlqk2F/XHUwMDA2lUppXHUwMDBlysyVOUFcdTAwMDOavG9cdTAwMDZKP/IuQr/xtphcdTAwMWNrtFCelDpbmmBcdTAwMTJcZvp9dFx1MDAwNlDy6t3KxUlt+UTcqqC1tFx1MDAxNNHz439KXHUwMDBlSqBEgtZcdTAwMTacn2ttlimduUtcdTAwMDF5XHUwMDEydU+yrFxcr0eUXHUwMDFhXGJ31ixcdTAwMGU5Y5qlqO85a9YyK1x1MDAxNWfwXG6u3k9GlDBcdTAwMTeihDdCJbfZ0kdUXCJLSqqNmd7LPGiZtbWbfbjm672b4WBNmWrFllx1MDAxY5XWXHUwMDEyUFxcW65cdTAwMTUu+CZcdTAwMTncr6hE58+i9yeEXHUwMDAwaYTJyJWg0qdcdTAwMWNN4Vx1MDAxZjBfgTCHSlx1MDAxNMRcdTAwMDCHSeGYcVRcdTAwMWGcXHUwMDFk5PrfiShcdTAwMWJBf1x1MDAwZUw53uprgLLn1+OvajlcdTAwMDGZoPLjP1x1MDAxNN16qXRq1L6HzH3/iPvVWnOztt1ar2xcdTAwMWXptX9cdTAwMDafS41Ma1x1MDAxOaFonyqKjqVcdTAwMTSpuPHwq1x1MDAxOY9up0GTQVx1MDAxOaMtpcU5lpZcdTAwMTMplbGKXCI4tZ3gV1xuQVx1MDAwNC5cdTAwMWVcdTAwMDaxYFxyZ+lV4sHNXHUwMDA0xYRITdcrhkn5Q8kzYdK5RzJZypzJ6jJDi4hJMHRqXb5nZ/TU29mLmo2T48+HYaVcdTAwMDZRs9S6zCjF5Vx1MDAxZFx0hjNmpKQqXHUwMDEz9Vx1MDAwN4O6LoxF61x1MDAwZodcbp2lwpRZKWJmjpIwaXDBYUK+glx1MDAwMv9AKFOD5TNo6o/xzFxu3saPb1x1MDAxYyVcdTAwMTlv9VxyeIZmS1x1MDAxM1x1MDAwYlx1MDAxMFx1MDAxNVx1MDAxN5VyXHUwMDA2bJpwsX5bNXBcdTAwMTH370/P9ujG553hTbmxySUnmlp0z4yzv7LQVJQo9JSsVVpIK/MtwFx1MDAxMvBcZkPfUlx1MDAxOFCikFxyuZ+CaajM02ZcdTAwMDCOk6xniMbvXHUwMDFkeCf7pnVcdFdRr3M5uDmo7q9ulFxcmZUgXHUwMDA2XHUwMDA0XHUwMDFhT1xutZmLrNWkOVFcdTAwMWP9XHUwMDE4XHUwMDAwq9FuUoVpMzZkXlx1MDAxMGVcdTAwMDBwwfjXsJR+MqJ54yjDeKtFRlx1MDAxOYDmR1x1MDAxOYTmVuCcT88xe9VcdTAwMTBcdTAwMTZXTOvOXlx1MDAxY+vV6/pw7bzhl1x1MDAxYpbULe5cdTAwMDZcZi7fXGb9+2zWXHUwMDA3rudcdTAwMDRBabiUWtnnwlxm89olwyVcdTAwMWPZL1x0Svwuwb9fepdcZpUpXHUwMDE3lmhcYlktrJpcdTAwMWWW0adcdTAwMGKPbt9cdTAwMGWbXHUwMDA3a6vnvD7giydbW+WGJfaSIENxZnDVRzp8XHUwMDFllflkOZfgXHUwMDFms0jxVNC5kuV79K9cdTAwMTivTLBcXGhyjkYuXHUwMDEzdHo71qxv7K5e3Z3dVU/D61qnvdyNT1x1MDAwZUqNTC2AWKpRvSh6XcZk9spcdTAwMDTlhDlcdTAwMGJcdTAwMTaRKYSVxeV+McZcdFx1MDAxZDmHlIJFlX+JVyalW07Tnsdv5pXBM7tMXFyCS6mj01x1MDAxM80uXHUwMDFktM1Fo329yzZXoNlke/Xrk3Krs1x1MDAxNISiy4VcdTAwMWFrhVx1MDAxNNnwn2CKUGuoMjghukivzDIyQYPHucVcbmaZofPNXVx1MDAxNFxucf5m1FK9uajPJeY3seHiXHRGQrb0XHUwMDFiJDXa+qiHM+wubV1eL8mzs0/nx73O6e7B5VF4vXdVakRcIoVaoqhGQKHvqYBnXHUwMDAyJW5bWOGqZIRcdTAwMDVBlc1cbvaKXGZcdTAwMDNA0Iri2lJmJUdxXkIxTGujpPyNKUbl+zJcZs1cdDeX01PM8sUmwNDbg9bB8eGwctjbkJ+ikiu0plx1MDAwNI1xg05cdTAwMDQ10rBMXCKDYEBQPbhCLtJcXPLiTCZriHTOjFtFXHUwMDA0mmrTZcsr1G/gaTPgl4/8JVx1MDAwYv9cdTAwMWJcdTAwMDf/JjZcXGigQeTu/3JmhVbp0NL3sLl4sS3U2sqOXu9cdTAwMWYtXHUwMDA2K1x1MDAwN3adLVx1MDAxZJZcdTAwMWGbuDJcdTAwMTPNmLRcdTAwMDK9NmXMmPnHXHSqvjFcdTAwMTJcckFhiqOaXHUwMDE3XHUwMDA1/7BNwzjM11x1MDAxNHyP/b1+4p/Ilj5CUrhcdTAwMTBcdTAwMTS109t/wYFcdTAwMDRo7y6eh8P2/ee24Xv+2adSQ9JyTaziwpGhXHUwMDEwTCZfMlx0kjQ/ID+fXGZ5a1x1MDAxOJJcdTAwMTWF3yjx79fPkFx1MDAwN51cdTAwMWIl4S7M5XLIpnfJjndOdlx1MDAwN0vd4YlcYk/EYT9eOu7VSlxyScYsXHUwMDEwKzha6kpcdI1Ge1x1MDAxNpOUXGKprULXlIlcdTAwMDI9slx1MDAxNyXIO4NcdTAwMTd9MPr7vUj2S+fHQ35cdTAwMWNeXG6XMs5heq9S+8fhcGvzZrHlNWzbnuphbS8uNyZdwohcdTAwMTZcdTAwMTY5krp9MjpcdTAwMTaIt4QqIykypbFW5XuV8+FJxoC6PYJ3ovxcdTAwMTmJclRrXHUwMDAyKFV+jpdcdTAwMGI1XHRcdTAwMWPwqTHZrjdcInW0s3lcdTAwMDX/1M/awV1cdTAwMDWiRqvkmFSWXHUwMDE4bVx1MDAxNFdauVx1MDAxOGX2lVx1MDAxNVx1MDAwM8RgKeVcYltjXHUwMDBiPFx1MDAxOFx1MDAwMcBcdTAwMTJcctxJwkA4ecYxaThxMSfuKFtcdTAwMTmRMrRcdTAwMWYhajlYqed2iMhzhIq/Um9cdTAwMTbMgNx+7PXi5SBqXHUwMDA0UTP7iFx1MDAxZjVy7oReP17ptNtBjGJUOkFcdTAwMTRna4y+d6nX69xe+d7YWOA3597ruq97empK8uljomOjf1x1MDAxZT//++fE2ov5U++usUlPvu9D+u+swM/fs2CMI+4lzLCNuDQ4XHUwMDE4Xlx1MDAxZla6d2LjUFb3Vm9rW1Gl3MinXFyR0X43/mgqROZIXHUwMDE0NJ1cdFxig0qrteBGXHUwMDE2d3hcdTAwMTBwScAwZS1cdTAwMDVAOSaYyN9cdTAwMDU+R//bUvNcdTAwMWFcdTAwMTHfd9y/XHUwMDE57vMm3l1FwZ7nv1x0x1FcdTAwMDT00WY4XHTpaGnntFKzXHUwMDE2zru3vUrveL+7X/HKXHUwMDBle0mky1x1MDAwYuNKSG4ysSrONEFn2Uj0jFx1MDAxNVx1MDAxNabAN1x1MDAxNFx1MDAxOMFVXHUwMDA3jFx1MDAwMCWUXHUwMDA0M4HutSVcbp1cIqrRO6Iur26M7vExyVx1MDAxMF+FvFxm91x1MDAwZftCYJ878e5cdTAwMWGb8tdCfX7OkFx1MDAwMuPelJkhXHUwMDFjdthYv95qdfudqrmLd1x1MDAwNodcdTAwMDHtb5Y8Zzxr5mcyXHUwMDE0cKBcdN411JrRXHUwMDBisoWh3lx1MDAxZLSmXGZcdTAwMTi3P+tUQEzwvLVcIsZwblBcdTAwMTZ36lx1MDAxOVx1MDAxZktQ0KhcdTAwMWHSsmLyXHUwMDEz3lFfXGLq8yfeXWNTPiPs81wibjyVppHFveVcXFKWXHUwMDBlsn5cdTAwMGb3J/ebelC5ur7eaMrBVmUgLipbrNy4XHUwMDE3Ulx1MDAxM+mOxKFSXHUwMDFiYVM5+lx1MDAwZlnpuFx1MDAxOLvD1ozl+JdcdTAwMTdH9y87KFx1MDAwNoRcdTAwMDXG0u9zv1x1MDAwN8J/gUA4XHUwMDEye1x1MDAxZSw5d2d18lx1MDAxOVx1MDAxMtI9cXBaO9lZPuv09le2XHUwMDE2XHUwMDE3W17YKfmLlWh3XHUwMDEzXHUwMDFjXHUwMDAzl5NKXHUwMDE5tZBcdLqBpoRL4dLEXHUwMDExszyVRVSSQDiVzFiY5+5cdTAwMTRol3j2ZqD8XHTD4Fx1MDAxZlx1MDAxZah4wet2qzGO3qO1szBcYvzb5XFN+eNydLnDi0eAdtDxR0bSl1x1MDAwZl/+XHUwMDBmKMzpXHUwMDE3In0=<!-- payload-end -->
  <defs>
    <style class="style-fonts">
      @font-face {
        font-family: "Virgil";
        src: url("https://excalidraw.com/Virgil.woff2");
      }
      @font-face {
        font-family: "Cascadia";
        src: url("https://excalidraw.com/Cascadia.woff2");
      }
      @font-face {
        font-family: "Assistant";
        src: url("https://excalidraw.com/Assistant-Regular.woff2");
      }
    </style>
    
  </defs>
  <g stroke-opacity="0.9" fill-opacity="0.9" stroke-linecap="round" transform="translate(483.46433854744726 10) rotate(0 44.33975287440421 42.717566793633296)"><path d="M44.26 0.6 C51.67 0.25, 60.83 3.65, 67.67 7.68 C74.52 11.7, 81.9 17.87, 85.34 24.75 C88.78 31.63, 89.43 41.31, 88.3 48.94 C87.17 56.56, 83.96 64.54, 78.55 70.51 C73.14 76.47, 63.74 82.55, 55.85 84.75 C47.95 86.94, 38.63 86, 31.17 83.7 C23.71 81.39, 16.33 76.7, 11.09 70.92 C5.85 65.14, 0.71 56.87, -0.28 49 C-1.26 41.13, 1.63 30.65, 5.16 23.69 C8.69 16.73, 12.48 11.04, 20.91 7.23 C29.33 3.42, 48.2 0.95, 55.7 0.82 C63.19 0.68, 65.96 5.51, 65.89 6.42 M43.95 0.36 C51.47 -0.45, 60.37 1.28, 67.02 5.43 C73.67 9.58, 80.22 18.16, 83.85 25.27 C87.49 32.38, 89.57 40.55, 88.85 48.11 C88.13 55.66, 84.97 64.79, 79.52 70.6 C74.08 76.41, 64.08 80.74, 56.17 82.99 C48.27 85.23, 39.33 86.01, 32.09 84.05 C24.86 82.08, 17.85 76.83, 12.76 71.21 C7.67 65.6, 3.21 57.85, 1.56 50.37 C-0.09 42.88, -0.25 33.48, 2.87 26.29 C5.99 19.11, 13.4 11.58, 20.26 7.26 C27.12 2.94, 40.24 1.26, 44.04 0.36 C47.83 -0.54, 43.21 1.12, 43.02 1.88" stroke="#1971c2" stroke-width="1" fill="none"></path></g><g stroke-opacity="0.9" fill-opacity="0.9" transform="translate(508.0678182820478 42.511685638065956) rotate(0 19.883333206176758 10)"><text x="19.883333206176758" y="0" font-family="Virgil, Segoe UI Emoji" font-size="16px" fill="#1971c2" text-anchor="middle" style="white-space: pre;" direction="ltr" dominant-baseline="text-before-edge">Base</text></g><g stroke-opacity="0.9" fill-opacity="0.9" transform="translate(585.1392165780557 25.002085145612227) rotate(0 32.650001525878906 10)"><text x="0" y="0" font-family="Virgil, Segoe UI Emoji" font-size="16px" fill="#1971c2" text-anchor="start" style="white-space: pre;" direction="ltr" dominant-baseline="text-before-edge">feature1</text></g><g stroke-opacity="0.9" fill-opacity="0.9" transform="translate(663.8752182194245 24.075779243949) rotate(0 28.549999237060547 10)"><text x="0" y="0" font-family="Virgil, Segoe UI Emoji" font-size="16px" fill="#2f9e44" text-anchor="start" style="white-space: pre;" direction="ltr" dominant-baseline="text-before-edge">enabled</text></g><g stroke-opacity="0.9" fill-opacity="0.9" transform="translate(587.620465046711 54.37008596629653) rotate(0 36.18333435058594 10)"><text x="0" y="0" font-family="Virgil, Segoe UI Emoji" font-size="16px" fill="#1971c2" text-anchor="start" style="white-space: pre;" direction="ltr" dominant-baseline="text-before-edge">feature2</text></g><g stroke-opacity="0.9" fill-opacity="0.9" transform="translate(666.3564666880801 53.44378006463353) rotate(0 31.08333396911621 10)"><text x="0" y="0" font-family="Virgil, Segoe UI Emoji" font-size="16px" fill="#e03131" text-anchor="start" style="white-space: pre;" direction="ltr" dominant-baseline="text-before-edge">disabled</text></g><g stroke-opacity="0.9" fill-opacity="0.9" stroke-linecap="round" transform="translate(258.15323329096 181.5477825266862) rotate(0 46.77844803398955 22.23134163991574)"><path d="M11.12 0 C28.25 0.57, 48.94 0.85, 82.44 0 M11.12 0 C32.95 1.25, 54.77 1.34, 82.44 0 M82.44 0 C90.07 0.03, 92.79 5.65, 93.56 11.12 M82.44 0 C87.61 -1.17, 92.29 4.47, 93.56 11.12 M93.56 11.12 C92.75 15.01, 92.43 20.86, 93.56 33.35 M93.56 11.12 C93.68 16.21, 93.57 22.27, 93.56 33.35 M93.56 33.35 C94.68 42.75, 88.9 46.12, 82.44 44.46 M93.56 33.35 C93.33 39.99, 88.15 42.33, 82.44 44.46 M82.44 44.46 C60.41 46.08, 40.59 45.38, 11.12 44.46 M82.44 44.46 C57.69 44.59, 35.13 43.62, 11.12 44.46 M11.12 44.46 C4.08 43.51, -0.58 41.66, 0 33.35 M11.12 44.46 C2.9 44.66, 1.22 41.43, 0 33.35 M0 33.35 C0.59 29.17, 1.61 25.26, 0 11.12 M0 33.35 C0.83 26.16, 0.03 19.05, 0 11.12 M0 11.12 C-1.33 3.76, 4.42 -0.65, 11.12 0 M0 11.12 C-0.5 4.87, 2.75 0.42, 11.12 0" stroke="#1971c2" stroke-width="1" fill="none"></path></g><g stroke-opacity="0.9" fill-opacity="0.9" transform="translate(269.26890411091824 194.51606514997025) rotate(0 33.400001525878906 10)"><text x="0" y="0" font-family="Virgil, Segoe UI Emoji" font-size="16px" fill="#1971c2" text-anchor="start" style="white-space: pre;" direction="ltr" dominant-baseline="text-before-edge">Context1</text></g><g stroke-opacity="0.9" fill-opacity="0.9" stroke-linecap="round" transform="translate(620.8019937920877 174.1373353133813) rotate(0 46.77844803398955 22.23134163991574)"><path d="M11.12 0 C37.82 0, 67.63 1.49, 82.44 0 M11.12 0 C26.01 0.79, 40.96 1.22, 82.44 0 M82.44 0 C90.13 1.32, 92.22 3.63, 93.56 11.12 M82.44 0 C89.78 -2.23, 95.32 5.5, 93.56 11.12 M93.56 11.12 C95.4 19.08, 94.71 25.24, 93.56 33.35 M93.56 11.12 C94.57 18.56, 93.97 26.06, 93.56 33.35 M93.56 33.35 C94.64 39.5, 88.21 42.75, 82.44 44.46 M93.56 33.35 C93.52 41.16, 88.98 46.01, 82.44 44.46 M82.44 44.46 C60.76 43.53, 37.47 44.43, 11.12 44.46 M82.44 44.46 C55.6 44.59, 31.15 44.97, 11.12 44.46 M11.12 44.46 C3.15 44.92, 1.3 42.15, 0 33.35 M11.12 44.46 C4.73 43.72, 0.55 41.18, 0 33.35 M0 33.35 C-0.57 28.21, -1.58 21.03, 0 11.12 M0 33.35 C-0.72 26.9, -0.14 18.94, 0 11.12 M0 11.12 C1.21 4.36, 3.7 -0.73, 11.12 0 M0 11.12 C1.02 5.97, 3.77 -0.75, 11.12 0" stroke="#1971c2" stroke-width="1" fill="none"></path></g><g stroke-opacity="0.9" fill-opacity="0.9" transform="translate(631.917664612046 187.1056179366651) rotate(0 36.93333435058594 10)"><text x="0" y="0" font-family="Virgil, Segoe UI Emoji" font-size="16px" fill="#1971c2" text-anchor="start" style="white-space: pre;" direction="ltr" dominant-baseline="text-before-edge">Context2</text></g><g stroke-opacity="0.9" fill-opacity="0.9" transform="translate(360.6755191392373 193.31597121577033) rotate(0 32.650001525878906 10)"><text x="0" y="0" font-family="Virgil, Segoe UI Emoji" font-size="16px" fill="#1971c2" text-anchor="start" style="white-space: pre;" direction="ltr" dominant-baseline="text-before-edge">feature1</text></g><g stroke-opacity="0.9" fill-opacity="0.9" transform="translate(434.77999127229066 193.3159712157701) rotate(0 31.08333396911621 10)"><text x="0" y="0" font-family="Virgil, Segoe UI Emoji" font-size="16px" fill="#e03131" text-anchor="start" style="white-space: pre;" direction="ltr" dominant-baseline="text-before-edge">disabled</text></g><g stroke-opacity="0.9" fill-opacity="0.9" stroke-linecap="round" transform="translate(10 316.5969212132809) rotate(0 56.50466000145275 22.23134163991574)"><path d="M11.12 0 C37.79 -1.49, 66.28 1.7, 101.89 0 M11.12 0 C35.63 -0.95, 58.93 -1.39, 101.89 0 M101.89 0 C109.3 -0.83, 112.06 4.66, 113.01 11.12 M101.89 0 C108.04 0.76, 114.37 4.45, 113.01 11.12 M113.01 11.12 C114.66 18.89, 113.76 27.97, 113.01 33.35 M113.01 11.12 C112.75 15.42, 113.06 21.5, 113.01 33.35 M113.01 33.35 C113.59 40.58, 107.38 43.19, 101.89 44.46 M113.01 33.35 C112.19 40.7, 107.51 43.04, 101.89 44.46 M101.89 44.46 C71.96 46.19, 43.55 44, 11.12 44.46 M101.89 44.46 C73.15 43.07, 46.13 44.85, 11.12 44.46 M11.12 44.46 C4.24 43.19, -1.77 40.84, 0 33.35 M11.12 44.46 C3.83 43.48, -0.04 42, 0 33.35 M0 33.35 C-1.16 27.71, 0.57 20.32, 0 11.12 M0 33.35 C0.42 27.2, 0.59 22.16, 0 11.12 M0 11.12 C-1.51 2.66, 3.71 -0.23, 11.12 0 M0 11.12 C0.78 3.28, 4.74 -1.59, 11.12 0" stroke="#1971c2" stroke-width="1" fill="none"></path></g><g stroke-opacity="0.9" fill-opacity="0.9" transform="translate(21.115670819958268 329.56520383656516) rotate(0 45.75 10)"><text x="0" y="0" font-family="Virgil, Segoe UI Emoji" font-size="16px" fill="#1971c2" text-anchor="start" style="white-space: pre;" direction="ltr" dominant-baseline="text-before-edge">Subcontext1</text></g><g stroke-opacity="0.9" fill-opacity="0.9" stroke-linecap="round" transform="translate(326.6998700140349 313.08322056285465) rotate(0 61.13618950976854 22.23134163991574)"><path d="M11.12 0 C52.36 -0.44, 92.23 1.39, 111.16 0 M11.12 0 C42.76 0.4, 74.44 -0.29, 111.16 0 M111.16 0 C119.72 0.11, 120.49 5.23, 122.27 11.12 M111.16 0 C118.44 0.44, 120.16 2.15, 122.27 11.12 M122.27 11.12 C122.29 17.89, 122.83 20.65, 122.27 33.35 M122.27 11.12 C121.9 19.02, 123.07 27.29, 122.27 33.35 M122.27 33.35 C123.08 40.75, 119.32 44.99, 111.16 44.46 M122.27 33.35 C120.36 39.35, 116.46 46.34, 111.16 44.46 M111.16 44.46 C81.27 45.25, 53.27 44.69, 11.12 44.46 M111.16 44.46 C70.97 43.23, 31.6 44.32, 11.12 44.46 M11.12 44.46 C5.19 45.76, 1.44 41.67, 0 33.35 M11.12 44.46 C5.56 46.19, -2.06 40.58, 0 33.35 M0 33.35 C1.41 26.7, -2.04 21.75, 0 11.12 M0 33.35 C0 25.64, 0.27 17.68, 0 11.12 M0 11.12 C-1.07 3.66, 5.59 -1.71, 11.12 0 M0 11.12 C-2.11 2.33, 2.05 1.39, 11.12 0" stroke="#1971c2" stroke-width="1" fill="none"></path></g><g stroke-opacity="0.9" fill-opacity="0.9" transform="translate(337.81554083399317 326.0515031861389) rotate(0 49.28333282470703 10)"><text x="0" y="0" font-family="Virgil, Segoe UI Emoji" font-size="16px" fill="#1971c2" text-anchor="start" style="white-space: pre;" direction="ltr" dominant-baseline="text-before-edge">Subcontext2</text></g><g stroke-opacity="0.9" fill-opacity="0.9" transform="translate(132.8042673301003 326.7040210552666) rotate(0 32.650001525878906 10)"><text x="0" y="0" font-family="Virgil, Segoe UI Emoji" font-size="16px" fill="#1971c2" text-anchor="start" style="white-space: pre;" direction="ltr" dominant-baseline="text-before-edge">feature1</text></g><g stroke-opacity="0.9" fill-opacity="0.9" transform="translate(205.05612765982676 326.70402105526637) rotate(0 28.549999237060547 10)"><text x="0" y="0" font-family="Virgil, Segoe UI Emoji" font-size="16px" fill="#2f9e44" text-anchor="start" style="white-space: pre;" direction="ltr" dominant-baseline="text-before-edge">enabled</text></g><g stroke-opacity="0.9" fill-opacity="0.9" transform="translate(460.0358335901291 323.92510335027646) rotate(0 36.18333435058594 10)"><text x="0" y="0" font-family="Virgil, Segoe UI Emoji" font-size="16px" fill="#1971c2" text-anchor="start" style="white-space: pre;" direction="ltr" dominant-baseline="text-before-edge">feature2</text></g><g stroke-opacity="0.9" fill-opacity="0.9" transform="translate(540.8420170127221 322.53564449778196) rotate(0 28.549999237060547 10)"><text x="0" y="0" font-family="Virgil, Segoe UI Emoji" font-size="16px" fill="#2f9e44" text-anchor="start" style="white-space: pre;" direction="ltr" dominant-baseline="text-before-edge">enabled</text></g><g stroke-linecap="round"><g stroke-opacity="0.9" fill-opacity="0.9" transform="translate(536.9713096915722 96.32763957367592) rotate(0 -114.86193180623184 41.683765574842255)"><path d="M0.13 -0.38 C-38.45 13.53, -192.2 69.16, -230.67 83.26 M-1.26 -1.63 C-39.54 12.49, -190.61 70.75, -228.46 84.73" stroke="#1971c2" stroke-width="1" fill="none"></path></g></g><mask></mask><g stroke-linecap="round"><g stroke-opacity="0.9" fill-opacity="0.9" transform="translate(303.5422224724558 229.71568941317105) rotate(0 -117.6408495112214 41.683765574842255)"><path d="M0.27 1.11 C-38.67 15.07, -195.51 69.61, -234.75 83.36 M-1.04 0.65 C-40 14.84, -196.28 70.83, -235.42 84.89" stroke="#1971c2" stroke-width="1" fill="none"></path></g></g><mask></mask><g stroke-linecap="round"><g stroke-opacity="0.9" fill-opacity="0.9" transform="translate(302.6159165707926 230.64199531483428) rotate(0 45.852142132326435 39.831153771515915)"><path d="M-0.31 0.83 C14.76 13.85, 75.36 65.25, 90.89 78.56 M1.73 0.22 C17.14 13.3, 78.02 66.4, 93.17 79.52" stroke="#1971c2" stroke-width="1" fill="none"></path></g></g><mask></mask><g stroke-linecap="round"><g stroke-opacity="0.9" fill-opacity="0.9" transform="translate(536.971309691572 97.2539454753396) rotate(0 64.84141311642122 38.44169491902119)"><path d="M-0.78 -1.11 C20.8 11.6, 109.09 63.98, 130.64 76.98 M1.01 0.92 C22.42 13.78, 108.56 65.69, 130.2 78.57" stroke="#1971c2" stroke-width="1" fill="none"></path></g></g><mask></mask><g stroke-opacity="0.9" fill-opacity="0.9" transform="translate(724.6049535039114 185.2107945762193) rotate(0 36.18333435058594 10)"><text x="0" y="0" font-family="Virgil, Segoe UI Emoji" font-size="16px" fill="#1971c2" text-anchor="start" style="white-space: pre;" direction="ltr" dominant-baseline="text-before-edge">feature2</text></g><g stroke-opacity="0.9" fill-opacity="0.9" transform="translate(805.4111369265041 183.82133572372481) rotate(0 28.549999237060547 10)"><text x="0" y="0" font-family="Virgil, Segoe UI Emoji" font-size="16px" fill="#2f9e44" text-anchor="start" style="white-space: pre;" direction="ltr" dominant-baseline="text-before-edge">enabled</text></g></svg>