<svg version="1.1" xmlns="http://www.w3.org/2000/svg" viewBox="0 0 947.2678475577026 647.9388083735905" width="1894.5356951154051" height="1295.877616747181">
  <!-- svg-source:excalidraw -->
  <!-- payload-type:application/vnd.excalidraw+json --><!-- payload-version:2 --><!-- payload-start -->eyJ2ZXJzaW9uIjoiMSIsImVuY29kaW5nIjoiYnN0cmluZyIsImNvbXByZXNzZWQiOnRydWUsImVuY29kZWQiOiJ4nO1bW1PbyFx1MDAxMn7nV7jY1zA7Mz3XfTlcdTAwMTUuXHUwMDAxXHUwMDEybiFAkj3Z2lx1MDAxMrbAOlx1MDAxOMlI4mK28t9Pj7AtWbaMjW1wqlblXHUwMDAyeTSSemb66/66p/3PSq22mnba/upcdTAwMWa1Vf+h7rWCRuzdr75z7Xd+nFx1MDAwNFGIl3j2PYlu43rWs5mm7eSP33/P7yD16PrpLr/lX/thmmC//+L3Wu2f7G/hPY3Au47CRtY9u5C/iDFbbj2IwuylTFx0XHJcXFJl+j2CZFx1MDAxM9+W+lxyvHzhtVx1MDAxMj+/4ppW+VaYrPmHwu5Ercfo07fOqbhcdTAwMGby115cdTAwMDSt1pe008qESlwiXHUwMDFjSH4tSePoyv9cdTAwMWE00mZv/IX2qrvi6PayXHUwMDE5+olcdTAwMWI867dGba9cdTAwMWWkXHUwMDFkbLO03+iFl9kj8pZcdTAwMDfXXHUwMDAxLGFcbpRVVlxiw2X/YiebXHUwMDFjJolcdTAwMTZSKVx0XHUwMDAyJ4KXxdqIWlHsxPqNWc3qPFx1MDAxN+zcq19donRho98njb0waXsxrlXe7743YFx1MDAwMFx1MDAwMsVD9Ls0/eCymbo+zFx1MDAxMi2BXHUwMDFhJfB1XHUwMDEyIJfGz5aEWcaVQknyNXUytHdcdTAwMWKZcvyVL0TsXfu77pbwttUqzmbY6M5mT4lyNeLdlp/5IF3/rbL6XHUwMDE1VXBAXHJT/yFcdTAwMWZ5QWv+3L9prG81m591fPr1y26n+fchW1/t9/v5bvRjn26u179cdTAwMWactS++Jc31JL5cdTAwMTf7x1x1MDAxMtj94Ft67/fiOLqf9Lnqmrf04fne3uP3w/jhyrec3lx1MDAxY0323O5ZPt237Yb3XHUwMDA0XHUwMDFhpqlUzCouOc11rVx1MDAxNYRX5bVoRfWrXHUwMDFjZytcdTAwMDWBh+A9MK9cdTAwMDVsg6qENmghqFCcTlxm7dGLtMzQZpRRolx1MDAxY7ZcckeIW2pK4DaGMFx1MDAwM1x1MDAxNjtIioecXHUwMDA13L9dZMcwsK2TXHUwMDAxXHUwMDBmwThIkExccuNayzKQQVx1MDAwMGiGlmd2XHUwMDFjXHUwMDBmXFxcdTAwMThcdTAwMDLsXHUwMDE4XHUwMDFklUxzo6fQ0VxcqihMv1x1MDAwNI+ZzaBcdTAwMDOtXHUwMDFmvOug1Vx1MDAxOVjQTHlxXHUwMDAyd5Paj/DC99Lb2MczP/TOW36j9p/VgZ7vW8FlmMFcdTAwMWVH4MdcdTAwMDNan1x1MDAwNuhcdTAwMWL7XHUwMDFkroNGXHUwMDAzlaLfoY6v94LQj3cn8VRRXHUwMDFjXFxcdTAwMDah1zrJpevJNkIynFx1MDAxYn+nt5qMXHUwMDE0vMi5l/juKrYrM1x1MDAxNsRPRmRcdTAwMDSKpeDl1lx1MDAxY8boXHUwMDEyhDRTeOjx5nIpYYx6SITVXHUwMDE0KNeGSZO7vUyTOJdcdTAwMDQ9M6dGSmHB2JJgOUT5hfWFeFx1MDAxOYxcdTAwMTlcdTAwMDVCXHUwMDA1UEspIDBx2odxzJQk1GrDuTGAy1akXHUwMDBiXVx1MDAwN82EUlrLN3PQY32SXHUwMDEx/EV4T1IvTteDsFx1MDAxMYSXg4J1qekkkMssRP3WSblGcaq1XHUwMDE0wFxmt4pJq4BcdTAwMTe6XXptJ/XQYP2wMYFcdTAwMTDBXHUwMDE1P2Lpx8/B3uN6erZcdTAwMTXER63N1aGnu8VWlFx1MDAxYcZcdTAwMTk6XHUwMDA2LkCPkJNcdTAwMTKGXFxMOr1cdTAwMDRAd4J0cUiolpekXHUwMDFi0fV1kOJkXHUwMDFmRUGYlic1m733XHUwMDBl/U3fXHUwMDFiWnFcdTAwMWNU8VrZTLTdXHUwMDEzXHUwMDA3qVd+VsuRlH3pn//1bmRvw4lmijpcdTAwMTBxPMldlTuAIFx1MDAwMvtcdTAwMWZ0mfDc46ohk11cdTAwMWRcdTAwMDJL/ryV4v9pWVx1MDAwZpPlxr65NNxYy5mZnPXUo8uT/Y3jTbg931xmmp/Vt42zXHUwMDAzvtzmkktDLFPaXHUwMDAwKCHRYpZYj+VcdTAwMDSn3GjJkVx1MDAxNSHyXHUwMDE3Yi6BXHUwMDEz5qJcdTAwMTjJXHUwMDE4SC4ht3d5NDPEejjFeFx1MDAwYuNcdTAwMWGRW/g3oD1IXHUwMDE01evRnu9+UsFwWv5FOobfpFG7itxcZlxiW2YyXHUwMDAzL5yIuLBcdTAwMTdcdTAwMTJcdTAwMTdcdTAwMDGm3NpHXCKqheDWismROD5cdTAwMWVbRiRa0MRcdTAwMWFmhORagCrh0NFcdTAwMTaNXHUwMDA0TqNcdFx1MDAxNKh51Tj00XxcdTAwMDJ7YfRcdTAwMDEks+Vdo07zweeshVx0YpjofSTNXHUwMDA17UUjXHUwMDEyOKVsXHUwMDFlsJw3aZGCXHUwMDE5yYv6/FakXHUwMDA1yVx1MDAwMONUIz9lyFxukL5cdTAwMTS852yUZX9zXHUwMDFm5M7ap2/f9enVdsRcdTAwMWaMr1x1MDAxZUaLQJGzoNFVXHUwMDFhXHUwMDE3i2tcZnzFsFx1MDAxMFx1MDAxYVebovfl1mjneeUvzVnWKjXcXHUwMDFkllx1MDAxOK2QSHKKg0XmzZ99nFx1MDAxMYQzyShcIsFKXHUwMDA1ZoBcdTAwMDNcckNlSs5cdTAwMTL79fTJWIxcIi5cZsqtPXuplVx1MDAwMcp4IaHznLlcdTAwMWOvNMtoLjVXXHUwMDA0zVxmUmlnNFx1MDAxNS+FeYC0XHUwMDA2cIWlRruqpISSXFxT2cvxqViJvLWXY8WTXHUwMDExXHUwMDE5m1x0bCaK6lJOOZOYo83sUe+5Z2Ltru9dxOfb+1x1MDAxZnePm2ubyePn8Oo1MqZjn7v26XzTfL1S3mlr8141k4/ihD7OL1x1MDAxM6tVYfVcdTAwMTaUieVjdlk0klx1MDAwM0o541x1MDAxM2N79CotNbaFXHUwMDBi9sBcblx1MDAwZcAlL/DrXGbbXHUwMDAyI0Ve2GbRs2C7klx1MDAwYqFdJ+BcdTAwMTK9QCXTXHUwMDE4XHUwMDE5TVx1MDAxMpOgmqBkXHUwMDE4XHUwMDE1vGkqllNZmONFxyRcdTAwMWa6mc4gqYVRWvPqaXDnV0Qps+Zhn/FT5ejlXHUwMDE50eZcdTAwMTHPVGKYllx1MDAxYvM0LJIujKdFnlx1MDAxM3xcdTAwMGXCx2db8dnf73ev1Mfk7mTTXHUwMDFlYaT8bakhbKREZlx1MDAwNFRbpdCtXHUwMDE1xtpNK1xioqXBXGJcdTAwMWXxQrVYXHUwMDEwhIFYl1bAqVx1MDAwNlx1MDAwZVx1MDAxYVxuezbj8lxu2kirLMvH/Vx1MDAwNlx1MDAxMH5xoPJcIlxiXHUwMDFmRK+bVSi+b1x1MDAxZSBcdTAwMWNTscDzXFxsXHUwMDE5iLjQwlg2RVZhfDp4XHUwMDE5ceiiS+JSJ/hhYFx1MDAxNc3p6Vx1MDAxM0/GgEhyQIAwzlxyetZKIM5asoAwJFlcXNVccrBG5fhcdTAwMTQjtliyMFx1MDAwNE0ltFB0ISz5xfVcbosqLHiOfbfeb+9vf1x1MDAxMlx1MDAwN9tcdTAwMGb10421v9Mj9Si2J66DOOY63Lm7OmjvPNRvRbR/vlx1MDAxM/25/OzbKpgm2fpcIs+NmldpMajFgJIymJx9j16l5TZcdTAwMTlWXHUwMDEzI5GhXHUwMDAw+kFly6E1QpC43X6kumag8miedVx1MDAxMEzyJ98tQFKJXHUwMDBledRcdTAwMDYqpWVcdTAwMDPBXGZHuqH4PFx1MDAwMulcdTAwMTn4t9VqmiBxNue9XHUwMDE5+UktXG79WnRR+1x1MDAxMaZN/4nneikqLjbgqqB4l53atZfWmz/ChZVIjPeNZVxuUJS6JPOgxFNXTlhcdTAwMThcdTAwMGL7ylxyXGI9hrJLpLCaTUPZx1x1MDAxYtilxL1cdTAwMTCMgEXkM6NAcF2iXG6Sc6KzXGZcdTAwMTaaYZyMaqowy1agscRahTh2wb9VYkTYbVx1MDAxOWFGaG1cdTAwMDWV3FxmXGLStVx1MDAwMlx1MDAxOFQos5Q7XHUwMDEwXG6oklx1MDAwYi2beK5ioVg24WTiXFzhZFx1MDAwYopfbKHbU/pcdTAwMWYpXHUwMDFiXHUwMDA1pVx1MDAxOFx1MDAwNqyoXHUwMDBm5oVbXHUwMDEyXHIvOEyOz9/zjbWtQ3ZcdTAwMTdcdDiJ70fJ5ERCimgl/mNcbozgIyo5XHUwMDA0Olx1MDAwNqWRr1LUXHUwMDAyVFx1MDAwMTEk1K+0I1Gqolx1MDAwMFu8e/oqikr4uGNcYjj501aK/6c2nYpW7t1yV81cYlZMXnM2nkIupeVk1Fx1MDAxMmmswGjKXHUwMDAyqu+Q5cRcdTAwMTiMU2RU0jBbXXE2U65D4uIqjI3c8oJcdTAwMWRZOYp2kVxiZd3miLOQllx1MDAwZeU+XFyNr6V2XHUwMDFllaS/XsHZpJaTXHUwMDEyQVx1MDAxNUVyjFx1MDAxZUa7JELOQ1xuhpMxUEy7XHUwMDE0XHUwMDAz2ilFh/dN572bi4im1lrKmVx1MDAxNkJgqDxsOpnj9YZcdTAwMDJHXHUwMDA37yrV7C9tOteYZiQ3nVx1MDAxNFx1MDAwM5Pi/dJcIkG0/Vx1MDAwZshnn1eNoeyyXHUwMDAwwlx1MDAwYlx1MDAxOVxmPaX1rIo3RWW4yZTbXHUwMDEyxFx1MDAxNZ2iYFftrXe+39Cbtn9w5m23Olx1MDAwZs2os9TGXHUwMDEznTlRaHFcdTAwMTRj6LNkufBFYiCos516XFxl1O/q39S8QaaYIU9BjkLnUJ87Q6pYXHUwMDE2KfC/qeLxqeKxNVx1MDAxNbyQ9C9hXHUwMDExXHUwMDExb1xcaerkNVx1MDAxNeNZ7zJCkWFcdTAwMTRAwP38hWmjhC7XzqNcdTAwMGImRlmFVIeCXHUwMDAxXb1rM0FcdTAwMDS4+KJcbsWts6B8IWRmYUVcdTAwMTVmW3/wb845rZ90ouOt5t3x/e7XV0jr9nzYuNhcdTAwMTU57DT7yi9yh1x1MDAwMJVcdTAwMTXZ6FwiKFVIpibG4OjJXFxuXGZcbkpcdTAwMTjqP46TMa6gXHUwMDE0S2DkS5CfUFxmqvCyqP5cdTAwMTXaTD9fwZcoV/ugXHUwMDE48lxcJtWIQtBRxVx1MDAwZq72QVPzpu6Qa6Ffz1x1MDAxZFx1MDAxNipcZlx1MDAxNlr48IwzXHUwMDE5U/jwqkVcdTAwMGaV0EV9tsylmiaG7lx1MDAwN31+XG77/7uBre29XHK5ufco07Wz5YauRPfJhbboXCI5XHUwMDAwpaWiXHUwMDA3YThRhrosXHUwMDBmXHUwMDE4aqo3Tl79p1x1MDAxNExLXHUwMDAzSqPbf1NcImuhkFx1MDAxY/n3p1x1MDAxNH1cdTAwMTSudN3yqtduf0lx1vqMZPUu8O/Xq9VjpYthXHUwMDA3XHUwMDE3PyMyP1d+/lx1MDAxZj6KXHUwMDE2TyJ9<!-- payload-end -->
  <defs>
    <style class="style-fonts">
      @font-face {
        font-family: "Virgil";
        src: url("https://excalidraw.com/Virgil.woff2");
      }
      @font-face {
        font-family: "Cascadia";
        src: url("https://excalidraw.com/Cascadia.woff2");
      }
      @font-face {
        font-family: "Assistant";
        src: url("https://excalidraw.com/Assistant-Regular.woff2");
      }
    </style>
    
  </defs>
  <g stroke-opacity="0.9" fill-opacity="0.9" stroke-linecap="round" transform="translate(222.9629629629627 10) rotate(0 116.66666666666663 109.87654320987667)"><path d="M146.25 27.5 C169.66 48.78, 189.29 66.45, 204.08 82.5 M146.25 27.5 C157.6 39.7, 169.66 50.8, 204.08 82.5 M204.08 82.5 C232.34 108.05, 232.91 109.89, 204.08 137.5 M204.08 82.5 C233.82 111.75, 234.5 112.21, 204.08 137.5 M204.08 137.5 C186.4 154.13, 169.52 170.36, 146.25 192.25 M204.08 137.5 C188.76 151.11, 174.57 166.2, 146.25 192.25 M146.25 192.25 C115.81 218.73, 118.75 220.14, 87.75 192.25 M146.25 192.25 C116.35 218.19, 114.98 218.77, 87.75 192.25 M87.75 192.25 C76.76 181.09, 60.95 168.74, 29.25 137.5 M87.75 192.25 C74.48 177.86, 59.85 165.63, 29.25 137.5 M29.25 137.5 C1.03 110.16, 1.71 109.4, 29.25 82.5 M29.25 137.5 C0.37 111.84, -1.03 110.75, 29.25 82.5 M29.25 82.5 C43.58 67.63, 55.87 54.64, 87.75 27.5 M29.25 82.5 C43.79 69.73, 58.91 54.01, 87.75 27.5 M87.75 27.5 C118.08 1.11, 117.36 -0.46, 146.25 27.5 M87.75 27.5 C119.08 0.91, 115.18 -0.78, 146.25 27.5" stroke="#1971c2" stroke-width="2" fill="none"></path></g><g stroke-opacity="0.9" fill-opacity="0.9" transform="translate(294.4629642345285 82.43827160493834) rotate(0 45.333332061767635 37.5)"><text x="45.33333206176758" y="0" font-family="Virgil, Segoe UI Emoji" font-size="20px" fill="#1971c2" text-anchor="middle" style="white-space: pre;" direction="ltr" dominant-baseline="text-before-edge">Is </text><text x="45.33333206176758" y="25" font-family="Virgil, Segoe UI Emoji" font-size="20px" fill="#1971c2" text-anchor="middle" style="white-space: pre;" direction="ltr" dominant-baseline="text-before-edge">feature </text><text x="45.33333206176758" y="50" font-family="Virgil, Segoe UI Emoji" font-size="20px" fill="#1971c2" text-anchor="middle" style="white-space: pre;" direction="ltr" dominant-baseline="text-before-edge">enabled ?</text></g><g stroke-linecap="round"><g stroke-opacity="0.9" fill-opacity="0.9" transform="translate(456.29629629629596 119.87654320987667) rotate(0 51.52154501587097 82.54891144177111)"><path d="M0.86 -0.39 C14.61 0.2, 66.68 -24.71, 83.53 2.88 C100.38 30.47, 98.63 138.11, 101.98 165.16 M-0.14 -1.63 C13.42 -0.86, 65.6 -24.03, 83.01 3.99 C100.42 32.01, 100.79 139.45, 104.32 166.51" stroke="#2f9e44" stroke-width="2" fill="none"></path></g><g stroke-opacity="0.9" fill-opacity="0.9" transform="translate(456.29629629629596 119.87654320987667) rotate(0 51.52154501587097 82.54891144177111)"><path d="M94.18 143.66 C97.36 153.82, 100.57 159.58, 104.32 166.51 M94.18 143.66 C97.65 151.34, 99.51 157.41, 104.32 166.51" stroke="#2f9e44" stroke-width="2" fill="none"></path></g><g stroke-opacity="0.9" fill-opacity="0.9" transform="translate(456.29629629629596 119.87654320987667) rotate(0 51.52154501587097 82.54891144177111)"><path d="M111.24 142.49 C107.78 153.23, 104.36 159.44, 104.32 166.51 M111.24 142.49 C109.51 150.54, 106.17 156.97, 104.32 166.51" stroke="#2f9e44" stroke-width="2" fill="none"></path></g></g><mask></mask><g stroke-opacity="0.9" fill-opacity="0.9" transform="translate(542.7160493827158 86.54320987654341) rotate(0 16.066667556762695 12.5)"><text x="0" y="0" font-family="Virgil, Segoe UI Emoji" font-size="20px" fill="#2f9e44" text-anchor="start" style="white-space: pre;" direction="ltr" dominant-baseline="text-before-edge">Yes</text></g><g stroke-linecap="round"><g stroke-opacity="0.9" fill-opacity="0.9" transform="translate(221.78111129249874 119.9676124789944) rotate(0 -46.91358024691351 57.407407407407504)"><path d="M0.94 0.19 C-14.61 2, -79.73 -9.41, -93.99 9.7 C-108.26 28.81, -86.17 97.15, -84.66 114.86 M-0.03 -0.75 C-15.69 1.35, -80.76 -8.34, -95.03 11.15 C-109.3 30.64, -87.32 99.06, -85.66 116.2" stroke="#e03131" stroke-width="2" fill="none"></path></g><g stroke-opacity="0.9" fill-opacity="0.9" transform="translate(221.78111129249874 119.9676124789944) rotate(0 -46.91358024691351 57.407407407407504)"><path d="M-98.76 94.9 C-95.47 99.68, -92.92 104.36, -85.66 116.2 M-98.76 94.9 C-95.13 100.79, -90.24 107.02, -85.66 116.2" stroke="#e03131" stroke-width="2" fill="none"></path></g><g stroke-opacity="0.9" fill-opacity="0.9" transform="translate(221.78111129249874 119.9676124789944) rotate(0 -46.91358024691351 57.407407407407504)"><path d="M-82.01 91.46 C-82.81 97.2, -84.31 102.72, -85.66 116.2 M-82.01 91.46 C-83.49 98.55, -83.67 105.83, -85.66 116.2" stroke="#e03131" stroke-width="2" fill="none"></path></g></g><mask></mask><g stroke-opacity="0.9" fill-opacity="0.9" stroke-linecap="round" transform="translate(10 252.59259259259306) rotate(0 126.5432098765433 57.407407407407504)"><path d="M28.7 0 C105.58 -2.92, 177.29 -0.18, 224.38 0 M28.7 0 C104.24 -0.89, 182.16 -0.25, 224.38 0 M224.38 0 C243.79 -0.18, 254.88 11.07, 253.09 28.7 M224.38 0 C243.24 -0.48, 251.28 8.84, 253.09 28.7 M253.09 28.7 C253.43 48.18, 253.75 64.26, 253.09 86.11 M253.09 28.7 C253.47 48.12, 253.77 68.39, 253.09 86.11 M253.09 86.11 C254.6 107.17, 242.06 114.64, 224.38 114.81 M253.09 86.11 C253.3 103.93, 245.79 112.68, 224.38 114.81 M224.38 114.81 C157.28 115.71, 91.79 112.08, 28.7 114.81 M224.38 114.81 C158.5 113.64, 93.65 115.09, 28.7 114.81 M28.7 114.81 C9.39 114.88, 0.78 106.11, 0 86.11 M28.7 114.81 C8.06 112.94, -1.37 103.08, 0 86.11 M0 86.11 C0.36 64.67, 1.19 44.66, 0 28.7 M0 86.11 C-0.9 66.82, -0.63 45.71, 0 28.7 M0 28.7 C-0.42 11.19, 8.41 0.36, 28.7 0 M0 28.7 C0.47 7.76, 9.18 -1.93, 28.7 0" stroke="#e03131" stroke-width="2" fill="none"></path></g><g stroke-opacity="0.9" fill-opacity="0.9" transform="translate(28.893208350664395 297.50000000000045) rotate(0 107.6500015258789 12.5)"><text x="107.6500015258789" y="0" font-family="Virgil, Segoe UI Emoji" font-size="20px" fill="#e03131" text-anchor="middle" style="white-space: pre;" direction="ltr" dominant-baseline="text-before-edge">Feature is not active</text></g><g stroke-opacity="0.9" fill-opacity="0.9" transform="translate(139.01234567901213 89.01234567901247) rotate(0 11.966666221618652 12.5)"><text x="0" y="0" font-family="Virgil, Segoe UI Emoji" font-size="20px" fill="#e03131" text-anchor="start" style="white-space: pre;" direction="ltr" dominant-baseline="text-before-edge">No</text></g><g stroke-opacity="0.9" fill-opacity="0.9" stroke-linecap="round" transform="translate(392.0987654320983 287.77777777777806) rotate(0 166.04938271604942 130.98765432098764)"><path d="M208.75 32.75 C227.7 49.25, 243.86 63.89, 290.35 98.25 M208.75 32.75 C239.68 57.86, 270.66 81.63, 290.35 98.25 M290.35 98.25 C332.38 131.37, 330.84 129.57, 290.35 163.75 M290.35 98.25 C334.19 132.62, 334.06 131.9, 290.35 163.75 M290.35 163.75 C267.96 183.55, 242.96 201.12, 208.75 229.23 M290.35 163.75 C266.99 183.54, 243.29 202.88, 208.75 229.23 M208.75 229.23 C167.76 260.93, 165.65 261.56, 125.25 229.23 M208.75 229.23 C168.52 263.24, 168.38 262.25, 125.25 229.23 M125.25 229.23 C104.24 212.41, 83.63 195.45, 41.75 163.75 M125.25 229.23 C104.73 213.51, 85.68 198.76, 41.75 163.75 M41.75 163.75 C0.9 130.02, 1.32 131.59, 41.75 98.25 M41.75 163.75 C2.09 130.04, 1.8 132, 41.75 98.25 M41.75 98.25 C73.92 72.06, 103.76 50.96, 125.25 32.75 M41.75 98.25 C65.27 81.29, 85.7 63.23, 125.25 32.75 M125.25 32.75 C166.31 1.23, 167.3 1.63, 208.75 32.75 M125.25 32.75 C167.77 -0.93, 165.54 -0.02, 208.75 32.75" stroke="#1971c2" stroke-width="2" fill="none"></path></g><g stroke-opacity="0.9" fill-opacity="0.9" transform="translate(481.65678961483 368.7716049382718) rotate(0 76.46666717529297 50)"><text x="76.46666717529297" y="0" font-family="Virgil, Segoe UI Emoji" font-size="20px" fill="#1971c2" text-anchor="middle" style="white-space: pre;" direction="ltr" dominant-baseline="text-before-edge">Does one of </text><text x="76.46666717529297" y="25" font-family="Virgil, Segoe UI Emoji" font-size="20px" fill="#1971c2" text-anchor="middle" style="white-space: pre;" direction="ltr" dominant-baseline="text-before-edge">the activation </text><text x="76.46666717529297" y="50" font-family="Virgil, Segoe UI Emoji" font-size="20px" fill="#1971c2" text-anchor="middle" style="white-space: pre;" direction="ltr" dominant-baseline="text-before-edge">strategy match</text><text x="76.46666717529297" y="75" font-family="Virgil, Segoe UI Emoji" font-size="20px" fill="#1971c2" text-anchor="middle" style="white-space: pre;" direction="ltr" dominant-baseline="text-before-edge">?</text></g><g stroke-linecap="round"><g stroke-opacity="0.9" fill-opacity="0.9" transform="translate(725.1978378815653 417.0024829516501) rotate(0 44.99809121169824 45.59238970264062)"><path d="M0.31 0.93 C14.12 1.65, 67.45 -11.53, 82.29 3.38 C97.14 18.29, 88.12 75.61, 89.38 90.37 M-0.98 0.37 C12.68 1.35, 66.24 -10.4, 81.12 4.75 C96 19.89, 86.81 77.09, 88.29 91.26" stroke="#2f9e44" stroke-width="2" fill="none"></path></g><g stroke-opacity="0.9" fill-opacity="0.9" transform="translate(725.1978378815653 417.0024829516501) rotate(0 44.99809121169824 45.59238970264062)"><path d="M80.39 67.54 C83.76 72.85, 83.68 78.56, 88.29 91.26 M80.39 67.54 C81.38 73.07, 83.08 78.49, 88.29 91.26" stroke="#2f9e44" stroke-width="2" fill="none"></path></g><g stroke-opacity="0.9" fill-opacity="0.9" transform="translate(725.1978378815653 417.0024829516501) rotate(0 44.99809121169824 45.59238970264062)"><path d="M97.49 68.01 C96.51 73.25, 92.08 78.84, 88.29 91.26 M97.49 68.01 C94.5 73.54, 92.23 78.85, 88.29 91.26" stroke="#2f9e44" stroke-width="2" fill="none"></path></g></g><mask></mask><g stroke-linecap="round"><g stroke-opacity="0.9" fill-opacity="0.9" transform="translate(393.3887054119333 422.4750872369277) rotate(0 -125.58303889719758 8.024691358024825)"><path d="M0.24 0.4 C-28.7 10.4, -130.76 67.43, -172.8 60.09 C-214.84 52.76, -238.84 -26.32, -252.01 -43.62 M-1.1 -0.43 C-29.76 9.22, -129.3 65.42, -170.71 58.41 C-212.13 51.4, -236.03 -25.65, -249.57 -42.52" stroke="#e03131" stroke-width="2" fill="none"></path></g><g stroke-opacity="0.9" fill-opacity="0.9" transform="translate(393.3887054119333 422.4750872369277) rotate(0 -125.58303889719758 8.024691358024825)"><path d="M-230.83 -25.96 C-237.11 -34.04, -243.32 -39.59, -249.57 -42.52 M-230.83 -25.96 C-236.18 -30.61, -240.73 -34.44, -249.57 -42.52" stroke="#e03131" stroke-width="2" fill="none"></path></g><g stroke-opacity="0.9" fill-opacity="0.9" transform="translate(393.3887054119333 422.4750872369277) rotate(0 -125.58303889719758 8.024691358024825)"><path d="M-245.86 -17.79 C-246.58 -28.93, -247.23 -37.5, -249.57 -42.52 M-245.86 -17.79 C-247.17 -24.56, -247.72 -30.56, -249.57 -42.52" stroke="#e03131" stroke-width="2" fill="none"></path></g></g><mask></mask><g stroke-opacity="0.9" fill-opacity="0.9" transform="translate(220.49382716049377 447.03703703703695) rotate(0 11.966666221618652 12.5)"><text x="0" y="0" font-family="Virgil, Segoe UI Emoji" font-size="20px" fill="#e03131" text-anchor="start" style="white-space: pre;" direction="ltr" dominant-baseline="text-before-edge">No</text></g><g stroke-opacity="0.9" fill-opacity="0.9" stroke-linecap="round" transform="translate(684.181427804616 523.1239935587755) rotate(0 126.5432098765433 57.407407407407504)"><path d="M28.7 0 C83.89 2.04, 138.37 -0.18, 224.38 0 M28.7 0 C71.3 1.04, 113.05 0.55, 224.38 0 M224.38 0 C243.62 1.62, 253.02 11.06, 253.09 28.7 M224.38 0 C244.16 -1.35, 253.14 7.38, 253.09 28.7 M253.09 28.7 C251.91 50, 250.96 73.48, 253.09 86.11 M253.09 28.7 C252.14 45.73, 253.25 60.75, 253.09 86.11 M253.09 86.11 C253.87 103.93, 242.81 113.48, 224.38 114.81 M253.09 86.11 C254.51 106.7, 244.97 113.42, 224.38 114.81 M224.38 114.81 C153.64 115.41, 86.25 115.05, 28.7 114.81 M224.38 114.81 C165.48 114.6, 106.33 114.53, 28.7 114.81 M28.7 114.81 C9.11 113.14, -0.29 103.83, 0 86.11 M28.7 114.81 C8.49 113.64, 1.58 105.34, 0 86.11 M0 86.11 C0.85 64.01, 0.97 43.79, 0 28.7 M0 86.11 C0.22 66.94, 0.74 46.11, 0 28.7 M0 28.7 C-1.14 7.99, 10.35 1.15, 28.7 0 M0 28.7 C-1.23 10.38, 10.46 0.44, 28.7 0" stroke="#2f9e44" stroke-width="2" fill="none"></path></g><g stroke-opacity="0.9" fill-opacity="0.9" transform="translate(723.9246346294013 568.0314009661829) rotate(0 86.80000305175781 12.5)"><text x="86.80000305175781" y="0" font-family="Virgil, Segoe UI Emoji" font-size="20px" fill="#2f9e44" text-anchor="middle" style="white-space: pre;" direction="ltr" dominant-baseline="text-before-edge">Feature is active</text></g><g stroke-opacity="0.9" fill-opacity="0.9" transform="translate(784.0472356414381 376.93505099302183) rotate(0 16.066667556762695 12.5)"><text x="0" y="0" font-family="Virgil, Segoe UI Emoji" font-size="20px" fill="#2f9e44" text-anchor="start" style="white-space: pre;" direction="ltr" dominant-baseline="text-before-edge">Yes</text></g></svg>