<?xml version="1.0" encoding="utf-8"?>
<!-- Generator: Adobe Illustrator 26.0.3, SVG Export Plug-In . SVG Version: 6.00 Build 0)  -->
<svg version="1.1"
	 id="Calque_1" xmlns:inkscape="http://www.inkscape.org/namespaces/inkscape" xmlns:sodipodi="http://sodipodi.sourceforge.net/DTD/sodipodi-0.dtd" xmlns:svg="http://www.w3.org/2000/svg"
	 xmlns="http://www.w3.org/2000/svg" xmlns:xlink="http://www.w3.org/1999/xlink" x="0px" y="0px" viewBox="0 0 167.2 154.4"
	 style="enable-background:new 0 0 167.2 154.4;" xml:space="preserve">
<style type="text/css">
	.st0{fill:#1D1D1B;}
	.st1{fill:#FFFFFF;}
</style>
<g id="Calque_2">
	<circle class="st0" cx="103.9" cy="86.1" r="32.3"/>
</g>
<sodipodi:namedview  bordercolor="#000000" borderopacity="0.25" id="namedview15" inkscape:current-layer="Calque_1" inkscape:cx="364.2799" inkscape:cy="252.11743" inkscape:deskcolor="#d1d1d1" inkscape:pagecheckerboard="0" inkscape:pageopacity="0.0" inkscape:showpageshadow="2" inkscape:window-height="997" inkscape:window-maximized="1" inkscape:window-width="1680" inkscape:window-x="0" inkscape:window-y="25" inkscape:zoom="1.0074671" pagecolor="#ffffff">
	</sodipodi:namedview>
<path id="path1" class="st1" d="M105.3,45.8c-22-3.8-25.8,28.1-4.1,29C121.4,75.7,126.3,49.2,105.3,45.8z M89.5,60.1
	c-0.8-1.9,0.3-3.5,2.4-3.2c7.9-0.2,15.9-1.6,23.7,0.7C116.8,70.3,91.3,71.5,89.5,60.1z M99.3,105.9c-1.2,0.2-2.3,0.2-3.6,0.6
	c1.5,0.4,2.7,0.1,3.8,0.3c1.9,3.1,6.3,2.3,8.1-0.4c1.1-0.2,2.9,0.6,2.8-1.2C106.8,105.9,101.8,100.9,99.3,105.9z M86,87
	c-1.9,0-3.7,0.5-4.9,2.2c-0.4,1.1-5.1,4.5-2.1,4.5c2.2-1.9,5.3-2.1,7.4-4.1C89.5,87.6,90.7,87.2,86,87z M88.7,98.3
	c2.1,0.1,3.2-2.1,2.1-3.8c-1.5-1.3-8.1-1.8-6.6,1.5C85.3,97.4,86.8,98.2,88.7,98.3z M105.8,58.1c-0.2,3.5-5.1,3-5.8,0
	c-3-0.2-5.6-0.2-8.5,0c0.4,3,6.4,6.2,9.4,7.2c5.1,1.3,11.8-0.6,13.2-6.2C114.6,56.9,109.1,58.1,105.8,58.1z M122.1,88.2
	c-2.8-1.2-5.9,0.8-8.5,1.6c1.1,1.3,4.3,0.8,6.1,1.6c0.5,0.1,0.9,0.1,1.3-0.1c1.6-0.7,3.3,0.6,5,0.1
	C128.2,89.3,123.3,88.9,122.1,88.2z M118,96.8c-0.6,1.1,0.5,1.6,1.3,2.2c2.5,2,6.4-1.9,6.5-4.6C122.2,92.3,119.3,94,118,96.8z
	 M104.9,58.5c-0.5-1-2-0.3-3-0.2C102.4,59.5,104.8,60.1,104.9,58.5z M53.7,78.3c3.1,2.6,5.3,6.5,9.7,7.1c2.2,0.3,6.2,1.8,6.2-1.7
	c0.6-8.4,4.4-16.6,10.7-22.3c3.9-3.3,5-2.7,6.5-7.8c4.2-11,18-13.9,27.3-7.4c4.7,2.3,3.9,8,7.3,10.8c20.5,11.5,14,35,20,30.9
	c9.1-3.7,18-9.6,22.3-18.8c5.2-11.9,0.8-27.6-9.5-35.5c-5.8-5.4-13.2-8.6-20.8-10.6c-7-2.4-7.7,0.9-8.6-6.9
	c-7.7-25-46.4-19.6-43.3,7.5C70.6,25,57.2,27,50.9,37.3c-5.1,9.2-7.3,20.2-4,30.4C48,72,50.3,75.5,53.7,78.3L53.7,78.3z M90.9,20.1
	c0,0-0.1,0-0.1-0.1c0.1,0,0.2,0,0.3,0C91,20.1,90.9,20.1,90.9,20.1z M93.7,19.9c2.2-0.2,4.5-0.6,7,0.2
	C98.3,20.1,96.2,19.7,93.7,19.9z M87,17.2c3.3-0.6,6.3-2.2,9.6-2.8c9.7-2.5,20.1,0.9,28.8,5.3c-2.5,1.7-8.1-2.2-11.6-1.8
	c-4.9-0.1-9.8-1.1-14.7-0.4c-4.6,0.4-9.3,1.5-13.9,1C86,17.5,86.1,17.3,87,17.2z M63.6,72.3c0.6,1.4,1.8,2,1.4,3.2
	C63.7,74.4,63.5,74,63.6,72.3z M53.1,62.4c0.7,0.7,0.7,2,0.7,3C53.1,64.5,52.8,63.6,53.1,62.4z M163.5,117.9
	c-4.5,0.9-7.1,5.2-8.8,9.2c-0.6,1.1-1.4,0-2-0.5c-6.7-4.3-6.2-8.1-10.4,1.5c-1,2.3-2.2,1.2-2.8-0.6c1.5-2.4,2.9-4.7,2.8-7.6
	c1.1-6.1,0.7-17.2-6.2-19.5c0.8-2.8,2.1-5.1,2-8c-6.2,21.6-13.3,12.2-4.2,24c0.2,0.3,0.4,0.7,0.3,0.9c-0.2,2.2,1.6,4.1,1,6.5
	c0.1,1.4-1.2,6.1-2.6,3.8c0.4-2.7-4.1-16.7-7.2-14.6c-11.2,8.9-12.9,1.1-5.4,15.9c1.6,2.7,0,5.5-2.8,3.1c-2.1-3.3-2.5-7.6-4.3-11.2
	c-0.7-2.5-6.7,0.6-9.2-0.2c-3.2,0-6.4-0.4-9.4-1.3c-1.8-0.6-4.5,10.2-5.3,12.3c-0.3,1.5-3.3,1.8-3.1-0.1c0.3-4.8,3.7-8.7,5.2-13.2
	c-14.9-7.9-10.3-11.7-19.6,5.2c-1.2,1.9-4.3,2.3-3.3-0.6c0.9-5.9,6.3-10.2,8.8-15.2c-2.9-3.1-3.7-7.4-6.4-10.6
	c0.2,1.9,1.2,3.3,1.7,5c-10.2,2-12.1,14.3-6.6,21.8c1.4,1.2-0.4,2.7-1.4,3.6c-0.5-0.7-0.6-2.6-1.8-1.7c-1.6,1.1-1.3-1.8-5.4-2
	c-7.4-15.1-14.6-30.3-21.9-45.4c-3.5-6.3-5.5-14-10.6-19.1c-0.5-0.3-1-0.3-1.3,0.3c-1.7,3-5.4,4-7.6,6.5C9.5,73,4.1,81.3,2.5,90.7
	c-1,6.1-3.2,12.1-2.3,18.3c0.4,3,0.9,6,1.2,8.9c0.6,1.8-0.2,8.9,3.2,6.1c1.4-1.7,1.6-4,2.7-5.8c1.5-3.4,4.7-6.1,5.2-9.9
	c0.1-3.8,0-4.5,3.7-2.8c2.5-1.7,18.4-21.3,19.1-15.9c6.2,11.9,12.7,23.6,18.9,35.6c-2,1.4-2.9,4.3-1.6,6.4c1.7,1.8,1.4,4.4,2.5,6.4
	c2.4,2.3,1.2,5.1,0.2,7.9c-0.5,1.1-0.4,2.2,0.1,3.1v5.4h90.6c0,0,0.4-7.5,0.2-10.1c0.1-3.2-1.1-7.1-4-11.9c1.9,0.6,3.8,2.7,4.9,4.6
	c0.7,0.7,2.1,0.7,3,0.9c1.4,0.3,2.6-0.8,3.9-0.8c1.6,0.3,3.3,0.4,4.8,1.2c3.2,1.7,4.2-3.6,2.3-5.3c-10.5-1.3-8.1,4.4-18.5-2.6
	c1-1.1,1.6-2.4,2.8-3.3c1.8,4,6.5,5.8,10.3,3.4c0.5-0.4,1.2-0.6,1.9-0.5c2.9,0.4,9.1,3.1,9.6-1.4
	C165.5,126.3,165.7,117.7,163.5,117.9L163.5,117.9z M3.6,100.5c-0.1-0.1,0-0.2,0.1-0.2C3.7,100.4,3.8,100.4,3.6,100.5z M75.8,131.2
	c0-0.1,0-0.1,0-0.2c0.1,0,0.2,0.1,0.4,0.1C76,131.2,75.9,131.2,75.8,131.2L75.8,131.2z M120.7,139.2c-1.5,2.3-4.8,2-7.2,2.8
	c-3.8,0.5-7.4-1.5-11.1-2c-4.8-0.8-10-0.4-14.4-2.4c-3.8-1.9-7.7-4.2-11.1-6.4c5.9,1.6,11.8,3.8,17.9,4.6c4.1,0.4,7.7,3.1,11.9,2.2
	c5-1,10.1-0.3,14.9-2.1c0.1-0.4,0.3-0.4,0.6-0.4c-2.7,2.3-7,2.5-10.6,2.8C112.4,139.9,119,139.1,120.7,139.2L120.7,139.2z
	 M125.1,134.3c-0.1,0.7-2,1.3-2.7,1.4c0.1-0.4,0.4-0.3,0.7-0.3c0.7-0.7,1.8-1.2,2.7-1.4C125.7,134.4,125.4,134.4,125.1,134.3z
	 M125.8,134c0.1-0.4,0.3-0.4,0.6-0.3C126.4,134,126.1,134.1,125.8,134z M126.5,133.6c0.1-0.4,0.4-0.4,0.7-0.3
	c0.2-0.6,0.6-0.6,1.3-0.7C127.8,133.3,127.3,133.6,126.5,133.6z"/>
</svg>
