<?xml version="1.0" encoding="utf-8"?>
<!-- Generator: Adobe Illustrator 22.0.1, SVG Export Plug-In . SVG Version: 6.00 Build 0)  -->
<svg version="1.1" id="Calque_1" xmlns="http://www.w3.org/2000/svg" xmlns:xlink="http://www.w3.org/1999/xlink" x="0px" y="0px"
	 viewBox="0 0 448.1 438.6" style="enable-background:new 0 0 448.1 438.6;" xml:space="preserve">
<style type="text/css">
	.st0{fill:#FFFFFF;}
	.st1{fill:#2E3031;}
	.st2{fill:#FFFFFF;stroke:#FFFFFF;stroke-width:1.4554;stroke-miterlimit:10;}
	.st3{fill:#DC5F9F;}
</style>
<title>Fichier 1</title>
<g>
	<g>
		<path class="st0" d="M111.4,194.1c3.1,1.6,8.1,0.2,5.9,4.5c-2.2,4.3,1.4,4.8,2.4,7.3c0.9,2.4-9.1,11.9-7,16s10.2,32.5,10.2,32.5
			l-7.5,33.3l-3.9,12.9l62.3,4.6l25.6-83.2l-3.4-79l-16.1-17.9l-34.7-2.1l-19.2,4.6L109.3,148c0,0-0.8,14-2.3,17.8
			c-1.5,3.8-4.9,9.1-5.3,11c-0.4,1.9-3.1,4,4,6.3s8,1.2,6.6,5.1C110.9,192.2,111.4,194.1,111.4,194.1z"/>
		<g>
			<path class="st1" d="M90.5,99.2c0,0-5.1,8,5.8,5.2s23.1-11.5,29.5-18.5c6.4-7,28.1-24.4,51.5-24.4s31.5,7,31.5,7
				s4.4,2.1,11.9,7.3c7.5,5.2,19,22.7,21,34.9c2,12.2,6.4,57.9,0,63.8c-6.4,5.9-37.3,52.3-37.3,52.3s-4.4-5.6-8.5-19.5
				c-4.1-13.9,3.4-33.5,3.4-33.5s-8.8,21.3-9.8,28.6c-1,7.3,0.7-14.3,2.4-23.7c1.7-9.4-6.1,2.1-6.4,11.2c-0.3,9.1-2.7-11.5-3.4-17.1
				c-0.7-5.6,2.4-13.9,2.4-13.9s-1,9.8-6.8,11.2c-5.8,1.4-7.7-0.7-7.7-0.7s8.1,0,9.8-4.9c1.7-4.9,0.1-23.7-0.6-24.8
				s-6.8-2.4-8.1,1.7c-1.4,4.2-6.3,15.3-10,26.1S153.8,195,145,195c-8.4,0,2.3,0.9,5.9-6.2c4.7-9.3,7.8-30.7,7.8-30.7l-11.2,22.7
				l6.4-19.9c0,0-6.4,9.8-10.5,11.9c-4.1,2.1-13.2,4.9-13.2,4.9s14.2-5.6,19-15c4.7-9.4,8.1-21.3,9.8-26.5
				c1.7-5.2,8.2-18.5,8.2-18.5s-16,5.2-19.1,6.3s-15.9,17.4-24.8,24.1c-8.8,6.6-23.7,21.3-24.8,24.8c-1,3.5-7.5,10.8-2,15
				c5.4,4.2-7.1-2.4-4.7-10.5c2.4-8,7.5-17.1,7.5-24.8c0-7.7-1-9.8,3.7-16.4c4.7-6.6-8.8,8.4-10.2,16s0.6-14.2,8.1-21.3
				c4.2-3.9,3.1-17.1,15.3-26.8s-4.1,2.1-13.2,3.8s-13.2,1-15.3-1.4C85.8,104,90.5,99.2,90.5,99.2z"/>
		</g>
		<g>
			<path class="st1" d="M111.8,156.1c0,0-2,12.3-5.3,15.7s-3.3,6.5,1.3,8.1c4.6,1.6,7.1,1.6,7.1,1.6s3.3-0.1,0,6.3
				c-1.1,2.1-3,4.2,0.7,5.5c3.6,1.3,3.4,3.9,2.4,5.8c-1,1.8,0.8,3.9,3.1,5c2.3,1,1.3,10.7,0,12.6c-1.3,1.8,0.6,4.1,5.7,4
				c5.3-0.1,10.3,0.1,17.5-5.3c7.1-5.5,26.2-14,31-27.4c4.8-13.4,7-24,7-24s8.1,3.2,0.2,22.5c-3.5,8.6-12.7,18.2-17.8,22.6
				s-14.5,11.5-24.9,13.9c-10.4,2.4-19.8,3.1-22.4,0c-2.5-3.1,2.3-9.7,2.3-13.6s-4.6-5-5.3-8.1c-0.8-3.1,2.2-2.2,2.8-4.4
				c0.6-2.3-6.1,0.3-5.6-3.7c0.5-3.9,2-7.6,1.5-8.9c-0.5-1.3-5.1-1.8-7.6-3.1c-2.5-1.3-4.7-1.6-1.1-8.4c3.6-6.8,5.6-16.5,5.6-16.5
				H111.8z"/>
		</g>
		<g>
			<path class="st1" d="M118.6,206.6c0,0-18.5,9.8-33.2,24s-18.9,14.8-14.8,14.1c3.9-0.7,12.2,1.3,19.1,3.9
				c6.9,2.6,18.3,7.3,19.1,18.6c0.8,11.2,2.5,28.5-3.3,34.3s-6.6,11.5-15.5,11.2c-8.9-0.3-22.9-5-23.1,2.4
				c-0.3,7.3-2.5,33.5-2.5,33.5s6.9,7,5.9,30c-1,23,8.1-6.5,8.1-6.5s1.2-6.7,7.6-22.9c6.4-16.2,17.6-32.7,21.4-38.2
				c3.8-5.5,35.6-53.8,35.6-53.8s3.2-2.9-0.3-14.4c-3.5-11.5-5.5-11.7-7.3-15.8c-1.8-4.1-8.9-3.8-11.7-4.9c-2.8-1-7.9-1.8-3.8-8.9
				C123.7,205.9,118.6,206.6,118.6,206.6z"/>
		</g>
		<g>
			<path class="st1" d="M244.4,166.6c0,0,8.9-10.4,30.6-10.5c21.7-0.1,26.5,5.8,23.7,10.5c-2.7,4.7-15.9,20-29.8,23.9
				c-13.9,3.8-31.5,11.8-40.7,20.9c-9.2,9.1-29.2,43.6-30.5,49.5c-1.4,5.9,0,9.1,0,9.1s-12.9-5.9-20.7,4.5
				c-7.8,10.5-13.6,27.5-13.6,27.5s6.1,1,23.1,0s28.8-3.3,29.5,0.5c0.7,3.7-14.9,38.2-21,60.2c-6.1,22-14.5-12.2-15.5,7.6
				c-1,19.9,9.8,37-3.1,34.5s-33.6-21.6-33.9-50.9c-0.3-29.3,7.7-32.7,12.4-48.4c4.7-15.7,12.2-34.9,22.7-55.1s31.2-47.8,42.2-60
				C230.9,178.3,244.4,166.6,244.4,166.6z"/>
		</g>
		<g>
			<path class="st1" d="M156.2,228c1.9,0,3.4,1.6,3.4,3.5s-1.5,3.5-3.4,3.5s-3.4-1.6-3.4-3.5S154.3,228,156.2,228 M156.2,224.9
				c-3.6,0-6.5,3-6.5,6.7s2.9,6.7,6.5,6.7s6.5-3,6.5-6.7S159.8,224.9,156.2,224.9L156.2,224.9z"/>
		</g>
		<g>
			<path class="st1" d="M159.7,246.1c1.9,0,3.4,1.6,3.4,3.5s-1.5,3.5-3.4,3.5s-3.4-1.6-3.4-3.5S157.8,246.1,159.7,246.1
				 M159.7,242.9c-3.6,0-6.5,3-6.5,6.7s2.9,6.7,6.5,6.7s6.5-3,6.5-6.7S163.3,242.9,159.7,242.9L159.7,242.9z"/>
		</g>
		<g>
			<g>
				<polygon class="st1" points="136.7,234.1 135.2,232.7 148.9,216.5 150.5,217.9 				"/>
			</g>
		</g>
		<g>
			<g>
				<polygon class="st1" points="136.3,239.4 135.7,237.4 151.4,232.4 152,234.4 				"/>
			</g>
		</g>
		<g>
			<g>
				<polygon class="st1" points="154.6,249.1 138.6,246.4 138.9,244.4 154.9,247 				"/>
			</g>
		</g>
		<g>
			<polygon class="st1" points="142.5,254.8 162.7,286 158.8,299.1 142.8,263.2 			"/>
		</g>
		<g>
			<path class="st1" d="M138.6,266.2c0,0,5.4,21.5,4.2,24.4c-1.1,2.9-25.9,32-32.3,36.7c-6.4,4.7-12,17-12,17l2.1,5.5
				c0,0,2-10.7,12.2-19.9s36.9-34.5,36.9-34.5L152,309l-20.6,22l-20.9,35.3c0,0,21.6-30.1,26.7-35.6c5.1-5.5,16-15.7,16-15.7
				s4.9-2.6,4.1-8.1C156.5,301.4,138.6,266.2,138.6,266.2z"/>
		</g>
		<g>
			<path class="st1" d="M105.3,313.6l1.5,17.3l-6.2,13.7l5.1,27.2c0,0-8.9-20.4-9.7-27.2c-0.8-6.8-2.5-17.5-2.5-17.5L105.3,313.6z"
				/>
		</g>
		<g>
			<polygon class="st1" points="114.6,296.4 122.2,313.6 118.4,292.5 			"/>
		</g>
		<g>
			<polygon class="st1" points="116.8,357.6 106.8,374.3 111.8,392.1 126.3,381.4 			"/>
		</g>
		<g>
			<polygon class="st1" points="132.1,335.3 145.6,366.2 154.9,316 142.5,330.9 			"/>
		</g>
		<g>
			<polygon class="st1" points="76.9,361.8 98.6,394.7 83.3,348.4 			"/>
		</g>
		<g>
			<polygon class="st1" points="102.2,394.7 144.5,371.6 146.8,360 			"/>
		</g>
		<g>
			<path class="st1" d="M256.8,194.6c0,0-17.4,27.1-18.4,37.8s-5.1,17.7,3.7,19.1s31.5-0.3,35.6,0c4.1,0.3,7.8-7,11.2,19.5
				c3.4,26.5,7.8,42.5,7.8,42.5s15.9-14,19.7-9.1c3.7,4.9,0,23.4,0,23.4s10.9,2.8,14.6,4.2s1.7,20.9,1.7,20.9s3.1,5,8.5,4.6
				c5.4-0.4,8.8,5.5,8.8,19.8c0,14.3,8.8-6.4,2.4-17.3c-6.4-10.9-14.6-0.1-15.9-9.2c-1.4-9.1,7.8-19.2-1.4-23.4
				c-9.2-4.2-14.9-0.7-14.9-8.9s8.8-25.6-4.1-21.8c-12.9,3.8-20,4.9-22.7-19.9s1-32.9-9.5-34c-10.5-1.2-30.3,7.8-38.7,3.8
				c-8.3-4-2.7-17.2,2.1-25.2c4.7-8,20.7-34.9,20.7-34.9s-5.1-0.7-6.8,0S256.8,194.6,256.8,194.6z"/>
		</g>
		<g>
			<path class="st1" d="M122.2,97.7c0,0-24.4,11.2-28.7,15.4s-9,10.4-14.2,9.7c-9.4-1.3-8.1-8.7-5.9-9.3c2.3-0.6-3.6,0.2-3.6,3.6
				s1,5.9,5.1,8.1c3.8,2.1,9.4,2.9,21.1-5c5.7-3.8,12.2-5.4,14.5-5.3c2.3,0.1-7.1,8.6-12,10.9c-4.4,2.1-7.3,4.7-9.2,8.7
				c-0.2,0.4-0.3,0.8-0.5,1.2c-1.8,4.7-1.6,11.2-1.6,11.2s3.2-16,8.5-16c5.3,0,16.3-5.5,16.3-5.5L122.2,97.7z"/>
		</g>
		<g>
			<path class="st1" d="M135.2,133.7c0,0,17.6-11.8,22.2-8.4c4.6,3.5,8.2,11.3,2.3,18.8c-5.9,7.5,0.6,2.9-4.6,8.6
				c0,0-12.3,14.7-0.2,3.4c12.1-11.3,10.5-23.2,14.6-29.8c4.1-6.6,8.5-12.6,3.1-13.9s-16.6-5.6-24.4,0
				C140.4,118,135.2,133.7,135.2,133.7z"/>
		</g>
		<g>
			<path class="st1" d="M162.7,209.3c0,0,10.3-3.8,14.7,0c4.4,3.8,11.5,15.7,2.7,17.4c-8.8,1.7-14.1-3.8-13.8-7
				c0.3-3.1-3.8,14.1,7.2,11.8c11-2.3,1.2,5.8-2.2,7.8c-3.4,2-7,12.1-8.6,25.4c-1.6,13.2,2.8-12.8,7.5-18.1c4.7-5.3,9.5-1.5,4.9,2.4
				s16.2-4.7,16.2-4.7l15.4-37.8l-7.4-32.8l-9.8-12c0,0-6.4,12.4-10.5,21.4c-4.1,9.1-14.9,23.4-14.9,23.4L162.7,209.3z"/>
		</g>
		<g>
			<path class="st1" d="M104.2,141.3c0,0-4.6,10.2-8.1,13.1c-3.6,2.9-16.5,4.2-15.5,12.6s7.2,5.2,7.2,5.2s-7-1.8-5-5
				c2-3.1,5.9-3.2,10.7-5.5c4.8-2.3,10.7-8.1,10.7-8.1V141.3z"/>
		</g>
		<g>
			<path class="st1" d="M256.5,186.4c0,0-12.7,0.6-18.5,17.5s-13.1,45.2-8,48.3c5.2,3.1,42.8-3.7,42.8,8.4c0,12-7.1,33.1-18.3,42.5
				s-29,14.4-30,31.2c-1,16.8-4.6-24-4.6-24l-3.9-7.7l-69.2,3.6l78.9-107.5L256.5,186.4z"/>
		</g>
		<g>
			<path class="st1" d="M230,193.6c0,0-18.2,64.2-10.1,68.7c8.1,4.5,57,8.7,57,8.7l1.1-25.7c0,0-31.6,8.4-37.2,3.7
				c-5.6-4.7-1.6-23,3.6-27.2c5.2-4.2,10.7-23,15.8-31.4s7.6-13.1,0-13.6C252.4,176.4,230,193.6,230,193.6z"/>
		</g>
		<g>
			<path class="st1" d="M341.5,227.9c0,0-44.6,66.7-57.5,80.3c-12.8,13.6-28,41.5-36.3,52s-24.6,22.6-32.7,33
				c-8.1,10.4-31,28.6-31,28.6l-8.2-10.5c0,0,8.5-24.5,15.9-32.9c7.4-8.4,44.5-45.1,53.3-53.9c8.8-8.8,40.7-46.6,52-60.5
				c11.3-14,37.4-43.7,37.4-43.7L341.5,227.9z"/>
		</g>
		<g>
			<path class="st1" d="M342.7,232.6c0,0,7.2,9.4,3.6,10.2c-3.6,0.9-3.6,0.9-10.5-8.3s-11.2-11.3-9-14.5s4.1-7.2,7.4-2.1
				C337.6,223,342.7,232.6,342.7,232.6z"/>
		</g>
		<g>
			<path class="st1" d="M340.9,240.5c0,0,9.1,10.9,5.2,11.4c-4,0.5-4,0.5-12.8-10.1c-8.8-10.7-14-13.5-11.7-16.6s4-7.3,8.2-1.4
				S340.9,240.5,340.9,240.5z"/>
		</g>
		<g>
			<path class="st1" d="M333.8,241.6c0,0,9.1,10.9,5.2,11.4c-4,0.5-4,0.5-12.8-10.1c-8.8-10.7-14-13.5-11.7-16.6
				c2.2-3.1,4-7.3,8.2-1.4S333.8,241.6,333.8,241.6z"/>
		</g>
		<g>
			<path class="st1" d="M318.6,239.6c0,0-8.2-11.9-4.3-12.1c3.9-0.2,3.9-0.2,11.8,11.4s12.8,14.9,10.4,17.9c-2.4,3-4.3,7.1-8.1,0.8
				C324.6,251.3,318.6,239.6,318.6,239.6z"/>
		</g>
		<g>
			<path class="st1" d="M304.6,261.8c0,0-8.6-7.8-5-9.1c3.6-1.4,3.6-1.4,11.8,6.2c8.3,7.6,13,9,11,12.3c-1.9,3.3-3.4,7.5-7.4,3.2
				C311.1,270.1,304.6,261.8,304.6,261.8z"/>
		</g>
		<g>
			<path class="st1" d="M305.6,254.1c0,0-10.8-8.9-6.7-10c4.1-1.1,4.1-1.1,14.4,7.6c10.4,8.7,16.1,10.6,14.1,13.9s-3.2,7.5-8.3,2.7
				S305.6,254.1,305.6,254.1z"/>
		</g>
		<g>
			<path class="st1" d="M312.8,251.9c0,0-10.8-8.9-6.7-10c4.1-1.1,4.1-1.1,14.4,7.6c10.4,8.7,16.1,10.6,14.1,13.9
				c-1.9,3.3-3.2,7.5-8.3,2.7C321.2,261.2,312.8,251.9,312.8,251.9z"/>
		</g>
		<g>
			<path class="st1" d="M328.7,251.3c0,0,9.9,10,5.9,10.8s-4,0.8-13.6-8.9c-9.6-9.8-15-12.2-12.9-15.4c2.1-3.2,3.6-7.4,8.3-2
				C321.2,241.2,328.7,251.3,328.7,251.3z"/>
		</g>
		<g>
			<path class="st1" d="M247.4,130.6c0,0-0.7,8.6,7.4,12.6c8.1,3.9,26.9,7,24.5,20.4c-2.4,13.4-18.6,29.1-10.5,38.8
				c8.2,9.7,18.7,5.5,15.7,19.8s-8.1,22,0.4,22.7s15.9,17.8,12.7,25.6s-4.7,16-4.7,16l-11.6-5.9c0,0,11.5-7,9.2-17.1
				c-2.4-10.1-8.6-12.6-11.7-15.5c-3.1-2.9-7.4-4.8-2.7-14c4.7-9.2,7.8-18.1,2.6-20.1c-5.2-2.1-14.1-5-14.8-10.3
				c-0.7-5.3-2.5-10.6,4.3-22.9s11.6-20.8,6.2-25.2c-5.4-4.5-12.3-5.6-17.4-6c-5.1-0.4-16.3-12.1-16.3-12.1L247.4,130.6z"/>
		</g>
		<g>
			<path class="st1" d="M252,122.3c0,0-1.7,8.5,5.8,13.4c7.6,4.9,25.8,10.3,21.8,23.3c-4,13-22,26.5-15.1,37.2s17.9,7.8,13.2,21.6
				c-4.8,13.8-10.7,20.8-2.3,22.6c8.4,1.7,13.6,19.7,9.5,27c-4.1,7.3-6.5,15.3-6.5,15.3l-10.8-7.3c0,0,12.3-5.5,11.1-15.8
				c-1.1-10.3-7-13.6-9.8-16.9c-2.7-3.3-6.8-5.7-1-14.3c5.7-8.6,9.9-16.9,5-19.6s-13.4-6.8-13.4-12.1c-0.1-5.3-1.2-10.8,7-22.1
				c8.2-11.3,14-19.2,9.2-24.3c-4.8-5.1-11.5-7.1-16.5-8.1c-5-1.1-14.7-14.1-14.7-14.1L252,122.3z"/>
		</g>
		<g>
			<path class="st1" d="M240.4,121c0,0-0.3,7.8,5.8,13.4c6.1,5.6,20.2,12.9,18.8,24.7c-1.4,11.9-13.2,22.4-6.9,33.4
				c6.3,11,14.1,9.5,12.2,22.1c-1.9,12.5-5.5,18.5,0.9,21.1s12.3,20.3,10.1,26.7s-3.1,13.7-3.1,13.7l-8.8-8.2c0,0,8.4-3.7,6.4-13.6
				c-2-9.9-6.7-13.7-9.1-17.2s-5.6-6.2-2.4-13.7s5.4-14.9,1.5-18c-3.9-3.2-10.6-8-11.3-13.1c-0.7-5.1-2.1-10.4,2.6-20.1
				c4.8-9.7,8.2-16.5,4-21.9c-4.1-5.4-9.3-8.1-13.1-9.7c-3.8-1.6-12.4-15.1-12.4-15.1L240.4,121z"/>
		</g>
		<g>
			<polygon class="st1" points="301.3,281.4 301.6,292.9 296.1,287.2 			"/>
		</g>
		<g>
			<polygon class="st1" points="280.7,294.2 265.5,290.6 275.2,301 			"/>
		</g>
		<g>
			<polygon class="st1" points="282.8,247.6 287.4,253.4 281,250.5 			"/>
		</g>
		<g>
			<polygon class="st1" points="292.2,256.4 282,255.5 292.2,263.1 			"/>
		</g>
		<g>
			<polygon class="st1" points="298.1,296.3 307,300 296.2,300 			"/>
		</g>
		<g>
			<path class="st1" d="M104.2,254.8c0,0,12.5,21.1,2.7,35c-9.9,13.9-25,17.7-40.9,18.1c-16,0.5-29.1-6.2-29.1-6.2s-8.3,12,2.2,58.2
				s38,26,38,26s-4.4-27.2,0-37.7c4.4-10.5,7.9-22,19.1-29.8s25.7-23.2,26.2-37.8c0.5-14.6,2.4-28.4-5.7-34.1
				S104.2,254.8,104.2,254.8z"/>
		</g>
		<g>
			<path class="st1" d="M257.7,357.6c15.6-4.3,35.2-7.4,48.1-7.2c12.9,0.2,25.9,7.2,25.9,7.2l13.6,28.5c0,0-34.5,13.1-54.6,8.6
				s-36.3-6.5-36.3-6.5s16.1-8.8,23.7-15.2C285.5,366.6,257.7,357.6,257.7,357.6z"/>
		</g>
		<g>
			<polygon class="st1" points="241.4,295.4 175.1,366.5 138.6,390.5 290.6,382.6 326.2,386.3 337.2,336.6 312.6,313.6 293.4,299.1 
							"/>
		</g>
		<g>
			<path class="st1" d="M233.7,93.1l-8.9-12.6c0,0,16.5,9.2,26.3,29c9.9,19.8,2.3,84.4,16,94.8c13.7,10.4,21.3-3.9,16.7-8.9
				c-4.7-5,7,5.2,4.8,11.2c-2.2,6-16.1,9.6-23.9,2.9c-7.8-6.6-23.3-28.6-24.6-40.4c-1.3-11.8-1.5-46-3.8-54.6
				C233.9,106,233.7,93.1,233.7,93.1z"/>
		</g>
		<g>
			<path class="st1" d="M256.5,186.4c0,0,15.5,11.3,12.7,21.9s-16.3,21-14.9,27.6s14.2,14.9,14.2,14.9s-6.5,0.9-10-1.2
				c-3.5-2.1-11.8-14.1-7-21.8c4.9-7.8,19.2-12.6,12.2-22.9c-7-10.3-15.9-15.1-15.9-15.1L256.5,186.4z"/>
		</g>
		<g>
			<path class="st1" d="M240.9,198.6c0,0,0.6,31.1,14.1,32.9c13.5,1.8,22.9,0,22.9,0s-19.6,11-30.1,4.3
				c-10.5-6.7-13.5-20.8-13.5-20.8L240.9,198.6z"/>
		</g>
		<g>
			<path class="st1" d="M135.2,135.7c0,0,5.6-1.9,9.3,5c3.7,6.9,15.2,14.6,5.2,16.3c-10,1.7-11.1-4.3-11.1-4.3s1,6.8,8.2,7.5
				c7.2,0.6,13-4.2,13-4.2l9.8-29.7l-6.9-11.5l-18.8,4.5L135.2,135.7z"/>
		</g>
		<g>
			<path class="st1" d="M143.5,180.7c0,0,5,5.1,9.7,1.7c7-5.2,9.4-9.6,9.4-9.6l7.4-3.5c0,0,5.5,2.5,15.7-4.9
				c10.2-7.5,5.5,19.1,4.6,22.1c-0.9,3-45.8,30.1-45.8,30.1s18.1-18,17.8-24.6c-0.3-6.6-1-9.5-7.4-7.4
				C148.5,186.7,143.5,180.7,143.5,180.7z"/>
		</g>
		<g>
			<path class="st1" d="M418.2,132.9c-5.1-8.4-11-17.4-17.8-26.4l-23.4-0.9c0,0-40-21.3-38.4-28.8c1.4-6.5,33,3.1,41.2,5.7
				c-15.1-15.6-33.7-30.7-57-43.7l-20.2,6.7c0,0-39.3-5.3-40.1-12c-0.6-5.3,23.2-7.3,33.2-7.9C278.2,18.2,258.3,12,236,7.5
				l-20.3,10.8c0,0-33.9,1.3-35.5-4.2c-1.2-4.3,17.6-9.3,26.3-11.4c-19.7-2.4-37.7-3.1-54-2.6l-12.1,8.4c0,0-23.2,3.7-24.7,0
				c-0.7-1.7,3.6-4.2,8.4-6.4C75.5,7.8,48.7,22.5,48.7,22.5s122-9.3,196.2,40.4c72.4,48.5,102.7,124.3,71.9,128.5l33.8,85.7
				l69.8-66.8l26.6,70.9C447,281.2,447,180.6,418.2,132.9z"/>
		</g>
		<g>
			<ellipse class="st1" cx="201.2" cy="375.6" rx="149.3" ry="56.3"/>
		</g>
		<g>
			<g>
				<path class="st1" d="M285.5,324.3c-16.2,27.6-61.9,60-120.5,82.3c-64.4,24.6-124.8,29.6-151.7,15c26.4,16.9,83.7,21.6,147.6,9.8
					c84.2-15.6,148-53.9,142.5-85.7C301.9,337.1,295.5,329.9,285.5,324.3z"/>
			</g>
		</g>
		<g>
			<g>
				<path class="st1" d="M122.1,324.2c16.2,27.6,61.9,60,120.4,82.4c64.4,24.7,124.7,29.7,151.7,15.1
					c-26.4,16.8-83.7,21.5-147.6,9.6c-84.2-15.7-148-54.1-142.4-85.9C105.7,337,112,329.8,122.1,324.2z"/>
			</g>
		</g>
		<g>
			<path class="st1" d="M104.4,160.3c0,0,1.3,5,0,9.7c-1.3,4.7-4.6,8.3-1.1,10c3.5,1.7,0.1-1.9,0.1-1.9s-0.4-5,3.3-7.9
				c3.6-2.9,4.4-17.4,4.4-17.4L104.4,160.3z"/>
		</g>
		<g>
			<path class="st1" d="M112.8,184.1c0,0-1,2.5-1.9,4.5c-0.9,1.9-1.9,1.8-2.2,3c-0.3,1.2,0,3.4,1.5,3.7c1.5,0.3,6.3,0.5,6.3,0.5
				s-3.7-1.6-4-2.2s-1.6-4.2,0-4.6c1.6-0.4,2.9-4.5,2.3-4.9s-2.3-1.7-2.3-1.7L112.8,184.1z"/>
		</g>
		<g>
			<path class="st1" d="M114.7,198.8c0,0-1.8,0.2-2.1,1.5c-0.3,1.2-0.3,3.2,1,3.6c1.3,0.3,5.3,0.4,2.9,3.2c-2.4,2.8,3.7,2.7,3.7,2.7
				l0.7-3.9l-4.4-4.7L114.7,198.8z"/>
		</g>
		<g>
			<path class="st1" d="M105.5,167.3c0,0-2.3,6.1-3.9,7.6s-3.6,3.9-2,5.4c1.6,1.5,4.9,2.8,8.1,3.3c3.2,0.4,7,0.5,7,0.5
				s-1.3-1.7-5.2-2.9s-6.8-1.8-7.1-3.3c-0.3-1.5,3.3-5.4,4-7.8C107.3,167.8,105.5,167.3,105.5,167.3z"/>
		</g>
		<g>
			<path class="st1" d="M245.7,108.6c0,0,11.4,7.2,14.4,20.8c3,13.7,3.2,27.3,3.2,27.3s5.2-17.7-9.4-27.3
				c-14.5-9.6-8.3-23.1-8.3-23.1V108.6z"/>
		</g>
		<g>
			<path class="st1" d="M252.3,135.7c0,0,8.6,51.6,5.9,74.1s-4.3,71.6-4.3,71.6S246.3,164,246,160.3
				C245.7,156.6,252.3,135.7,252.3,135.7z"/>
		</g>
		<g>
			<path class="st1" d="M253.8,209.6c8,27.3,19,50.8,19,50.8l-35.1-2.3l-13.1-52.7l20.4-21.8L253.8,209.6z"/>
		</g>
		<g>
			<path class="st1" d="M135.7,251c0,0,8.1-28.6,24.1-41.3s-11.8,9.7-24.1,12.1s-7.7,10.5-7.7,10.5L135.7,251z"/>
		</g>
		<g>
			<path class="st1" d="M292.2,167.3c0,0-14,8.7-23.1,34.9c-9.2,26.2-3.5,66-3.5,66s-13.4-11.9-20.4-30.2s-14.3-54.5,1.4-62.3
				S292.2,167.3,292.2,167.3z"/>
		</g>
		<g>
			<polygon class="st1" points="172.2,192.9 135.2,226.8 132.1,247.6 154.9,280.6 159.7,292.5 190.3,268.3 192.1,220.5 189.5,198.6 
							"/>
		</g>
		<path class="st0" d="M185.7,274.6c0,0,29.2-23.9,44.3-30.3c15.1-6.3,28.6-9,33.9-5.3s5.7,7.7,5.7,7.7s-27.6-1.1-45,8.8
			c-17.4,9.9-22,17.6-20.9,19.2s30.7,2.3,30.7,2.3s-13.4,3.6-30.7,3.7s-7.5,8.1-7.5,8.1h-46.1L185.7,274.6z"/>
		<path class="st0" d="M232.1,300l88,1c0,0-16.7-38.8-27.9-44.6c-11.3-5.9-33.2,1.5-37.6,6.6C250.2,268.2,232.1,300,232.1,300z"/>
		<g>
			<path class="st1" d="M394.4,384.2H12.9c-7.1,0-12.9-5.8-12.9-12.9v-69.7c0-7.1,5.8-12.9,12.9-12.9h373.6
				c11.5,0,20.9,9.4,20.9,20.9v61.7C407.3,378.4,401.5,384.2,394.4,384.2z"/>
		</g>
		<g>
			<ellipse class="st1" cx="203.7" cy="361.4" rx="180.9" ry="57.5"/>
		</g>
		<g>
			<path class="st2" d="M143.7,389.6c0.4,0.5,1,1.3,1.3,1.8c4.3-2.2,8.7-4.8,12-7.2v16.7h2.3v-17.4c0.3,0,0.6-0.2,0.7-0.4
				c-0.1-0.1-0.5-0.3-0.8-0.4c3.1-2.3,6.6-5.2,9-7.8c0.1,0,0.2,0,0.3,0c0.3,0,0.5-0.1,0.6-0.3l-2.4-1.8
				C161.8,378.5,152.3,385.5,143.7,389.6z"/>
			<path class="st2" d="M191.7,373.4c0.5-0.1,0.7-0.4,0.8-0.6l-3-0.2v7.5h-10v-6.2c0.5-0.1,0.8-0.4,0.8-0.7l-3-0.2v7.1h-6.2v2.2h6.2
				v8h2.2v-8h10v2.2c0,5.3-1.5,11.1-9.5,14.7c0.5,0.5,1.2,1.1,1.6,1.6c8.3-3.8,10.1-10.1,10.1-16.3v-2.2h6.8v-2.2h-6.8V373.4z"/>
			<path class="st2" d="M196.7,371.1l-1.1,0.9c1.3,1.2,2.8,3.1,3.8,4.6l1.1-0.9C199.6,374.2,198.1,372.4,196.7,371.1z"/>
			<path class="st2" d="M196.2,379.2l1.1-0.9c-0.9-1.5-2.4-3.3-3.8-4.6l-1.1,0.9C193.7,375.8,195.3,377.8,196.2,379.2z"/>
			<path class="st2" d="M217.2,373.2c0.4-0.1,0.7-0.3,0.8-0.6l-3.1-0.2c0,3.3,0,6.2-0.1,8.7H202v2.2h12.7
				c-0.6,7.7-2.5,12.1-9.1,15.9c0.6,0.5,1.4,1.1,1.8,1.6c6.9-4.1,8.9-9.1,9.5-17.5h11.4v-2.2H217
				C217.2,378.8,217.2,376.2,217.2,373.2z"/>
			<path class="st2" d="M251.6,376.8c-4.4-1.6-11.2-2.9-16.6-3.5l-0.7,2.2c5.4,0.6,12.1,1.9,16.4,3.6L251.6,376.8z"/>
			<path class="st2" d="M250.1,386.4c-3.9-1.2-10.2-2.5-15.3-3l-0.7,2.2c5.1,0.5,11.5,1.8,15.2,3.1L250.1,386.4z"/>
			<path class="st2" d="M232.3,393.3l-0.8,2.1c6.9,0.8,15.4,2.9,19.8,4.8l0.9-2.3C247.4,396,239.3,394.1,232.3,393.3z"/>
		</g>
		<g>
			<path class="st3" d="M93.2,304c0,0.8-0.2,1.6-0.5,2.3c-0.3,0.7-0.8,1.4-1.3,1.9c-0.5,0.5-1.2,1-1.9,1.3c-0.7,0.3-1.5,0.5-2.3,0.5
				c-0.8,0-1.6-0.2-2.3-0.5c-0.7-0.3-1.3-0.8-1.9-1.3c-0.5-0.5-0.9-1.2-1.3-1.9c-0.3-0.7-0.5-1.5-0.5-2.3c0-0.9,0.2-1.7,0.5-2.4
				s0.7-1.4,1.3-1.9c0.5-0.5,1.1-1,1.9-1.3c0.7-0.3,1.5-0.5,2.3-0.5c0.8,0,1.6,0.2,2.3,0.5c0.7,0.3,1.4,0.8,1.9,1.3
				c0.5,0.5,1,1.2,1.3,1.9S93.2,303.1,93.2,304z M91.8,315.5v39.7h-9.3v-39.7H91.8z"/>
			<path class="st3" d="M127.6,319.5c0,0.7-0.1,1.3-0.4,2c-0.2,0.6-0.5,1.2-0.8,1.6L108,347.9h19v7.3H97.2v-4c0-0.4,0.1-1,0.3-1.6
				c0.2-0.6,0.5-1.2,0.9-1.7l18.5-25.1H98.3v-7.3h29.3V319.5z"/>
			<path class="st3" d="M163.7,355.2h-4.2c-0.9,0-1.6-0.1-2.1-0.4c-0.5-0.3-0.9-0.8-1.1-1.6l-0.8-2.8c-1,0.9-1.9,1.7-2.9,2.4
				c-0.9,0.7-1.9,1.3-2.9,1.7c-1,0.5-2.1,0.8-3.2,1c-1.1,0.2-2.4,0.3-3.8,0.3c-1.6,0-3.1-0.2-4.5-0.7c-1.4-0.5-2.6-1.1-3.6-2
				c-1-0.9-1.8-2-2.3-3.4c-0.6-1.3-0.8-2.9-0.8-4.7c0-1.5,0.4-3,1.1-4.4c0.8-1.5,2-2.8,3.8-4c1.8-1.2,4.1-2.2,7.1-2.9
				c3-0.8,6.6-1.2,11-1.2v-2.3c0-2.7-0.5-4.7-1.6-5.9c-1.1-1.3-2.7-1.9-4.8-1.9c-1.5,0-2.8,0.2-3.8,0.5c-1,0.4-1.9,0.8-2.6,1.2
				c-0.7,0.5-1.4,0.9-2.1,1.2c-0.6,0.4-1.3,0.5-2.1,0.5c-0.6,0-1.2-0.2-1.6-0.5c-0.5-0.3-0.8-0.7-1.1-1.2l-1.7-3.1
				c4.4-4.2,9.8-6.3,16.1-6.3c2.3,0,4.3,0.4,6,1.1c1.8,0.8,3.3,1.8,4.5,3.2c1.2,1.4,2.2,3,2.8,4.9c0.6,1.9,1,3.9,1,6.2V355.2z
				 M145.6,349.3c1,0,1.8-0.1,2.6-0.3c0.8-0.2,1.6-0.4,2.3-0.8c0.7-0.4,1.4-0.8,2.1-1.3c0.7-0.5,1.3-1.1,2-1.8v-6.6
				c-2.7,0-5,0.2-6.8,0.5c-1.8,0.3-3.3,0.8-4.4,1.3c-1.1,0.5-1.9,1.2-2.4,1.9c-0.5,0.7-0.7,1.5-0.7,2.4c0,1.7,0.5,2.9,1.4,3.6
				C142.8,348.9,144.1,349.3,145.6,349.3z"/>
			<path class="st0" d="M171.8,355.2V316h4c1,0,1.6,0.5,1.8,1.4l0.5,4.3c1.7-1.9,3.5-3.4,5.5-4.6c2-1.2,4.4-1.7,7.1-1.7
				c2.1,0,3.9,0.4,5.5,1.1c1.6,0.7,2.9,1.7,4,3c1.1,1.3,1.9,2.9,2.4,4.7c0.6,1.8,0.8,3.9,0.8,6.1v24.9h-6.7v-24.9c0-3-0.7-5.3-2-6.9
				c-1.3-1.6-3.3-2.5-6-2.5c-2,0-3.8,0.5-5.5,1.5c-1.7,1-3.3,2.3-4.8,4v28.8H171.8z"/>
			<path class="st0" d="M237.9,355.2h-3c-0.7,0-1.2-0.1-1.6-0.3c-0.4-0.2-0.7-0.6-0.8-1.3l-0.8-3.6c-1,0.9-2,1.8-2.9,2.5
				c-1,0.7-2,1.4-3,1.9c-1.1,0.5-2.2,0.9-3.4,1.1c-1.2,0.3-2.5,0.4-4,0.4c-1.5,0-2.9-0.2-4.2-0.6c-1.3-0.4-2.4-1.1-3.4-1.9
				c-1-0.9-1.7-1.9-2.3-3.2c-0.6-1.3-0.8-2.9-0.8-4.6c0-1.6,0.4-3,1.2-4.5c0.8-1.4,2.2-2.7,4-3.8c1.8-1.1,4.3-2,7.2-2.7
				c3-0.7,6.6-1.1,10.9-1.1v-3.1c0-3.1-0.6-5.4-1.9-6.9c-1.3-1.6-3.1-2.4-5.6-2.4c-1.6,0-3,0.2-4.1,0.6c-1.1,0.4-2.1,0.9-2.9,1.4
				c-0.8,0.5-1.5,1-2.1,1.4c-0.6,0.4-1.2,0.6-1.7,0.6c-0.5,0-0.8-0.1-1.2-0.4c-0.3-0.2-0.6-0.5-0.8-0.9l-1.2-2.2
				c2.1-2.1,4.4-3.6,6.8-4.7c2.4-1,5.1-1.5,8.1-1.5c2.1,0,4,0.4,5.7,1.1c1.7,0.7,3,1.7,4.2,3c1.1,1.3,2,2.8,2.6,4.7
				c0.6,1.8,0.9,3.8,0.9,6V355.2z M220.5,351c1.2,0,2.3-0.1,3.2-0.4c1-0.2,1.9-0.6,2.8-1c0.9-0.5,1.7-1,2.5-1.6
				c0.8-0.6,1.6-1.4,2.3-2.2v-8.1c-3.1,0-5.7,0.2-7.9,0.6c-2.2,0.4-3.9,0.9-5.3,1.6c-1.4,0.6-2.3,1.4-3,2.3c-0.6,0.9-0.9,1.9-0.9,3
				c0,1,0.2,1.9,0.5,2.7c0.3,0.8,0.8,1.4,1.3,1.8c0.6,0.5,1.2,0.8,2,1C218.8,350.9,219.6,351,220.5,351z"/>
			<path class="st0" d="M244.7,355.2V316h4c1,0,1.6,0.5,1.8,1.4l0.5,4c1.4-1.8,3-3.2,4.7-4.4c1.7-1.1,3.8-1.7,6.1-1.7
				c2.6,0,4.7,0.7,6.3,2.2c1.6,1.5,2.7,3.5,3.4,6c0.5-1.4,1.2-2.6,2.1-3.7c0.9-1,1.8-1.9,2.9-2.6c1.1-0.7,2.2-1.2,3.4-1.5
				c1.2-0.3,2.5-0.5,3.7-0.5c2,0,3.8,0.3,5.4,1c1.6,0.7,2.9,1.6,4,2.9c1.1,1.3,1.9,2.8,2.5,4.7c0.6,1.8,0.9,4,0.9,6.3v24.9h-6.7
				v-24.9c0-3.1-0.7-5.4-2-7c-1.3-1.6-3.2-2.4-5.7-2.4c-1.1,0-2.2,0.2-3.1,0.6c-1,0.4-1.9,1-2.6,1.8c-0.8,0.8-1.3,1.7-1.8,2.9
				c-0.4,1.2-0.7,2.5-0.7,4.1v24.9h-6.7v-24.9c0-3.1-0.6-5.5-1.8-7c-1.2-1.5-3-2.3-5.4-2.3c-1.7,0-3.2,0.5-4.6,1.4
				c-1.4,0.9-2.7,2.2-3.9,3.7v29.2H244.7z"/>
			<path class="st0" d="M311.6,303.7c0,0.7-0.1,1.3-0.4,1.9c-0.3,0.6-0.6,1.1-1.1,1.5c-0.4,0.5-0.9,0.8-1.5,1.1
				c-0.6,0.3-1.2,0.4-1.8,0.4s-1.3-0.1-1.8-0.4c-0.6-0.3-1.1-0.6-1.5-1.1c-0.4-0.5-0.8-1-1-1.5c-0.3-0.6-0.4-1.2-0.4-1.9
				c0-0.7,0.1-1.3,0.4-1.9c0.2-0.6,0.6-1.1,1-1.6c0.4-0.5,0.9-0.8,1.5-1.1c0.6-0.3,1.2-0.4,1.8-0.4s1.3,0.1,1.8,0.4
				c0.6,0.3,1.1,0.6,1.5,1.1c0.4,0.5,0.8,1,1.1,1.6C311.5,302.4,311.6,303.1,311.6,303.7z M310.1,316v39.2h-6.7V316H310.1z"/>
		</g>
	</g>
</g>
</svg>
