<?xml version="1.0" standalone="no"?>
<!DOCTYPE svg PUBLIC "-//W3C//DTD SVG 20010904//EN"
 "http://www.w3.org/TR/2001/REC-SVG-20010904/DTD/svg10.dtd">
<svg version="1.0" xmlns="http://www.w3.org/2000/svg"
 width="260.000000pt" height="260.000000pt" viewBox="0 0 260.000000 260.000000"
 preserveAspectRatio="xMidYMid meet">
<metadata>
Created by potrace 1.14, written by Peter Selinger 2001-2017
</metadata>
<g transform="translate(0.000000,260.000000) scale(0.100000,-0.100000)"
fill="#000000" stroke="none">
<path d="M860 2565 c-191 -48 -358 -120 -457 -194 -48 -37 -51 -38 -57 -18 -5
21 -5 21 -27 1 -14 -12 -19 -13 -14 -4 6 12 5 12 -5 3 -15 -14 -8 -49 50 -248
20 -71 49 -186 64 -255 16 -69 46 -199 68 -290 22 -91 40 -171 41 -177 0 -7 3
-13 7 -13 3 0 6 -8 7 -17 1 -10 18 -84 37 -165 20 -81 36 -154 36 -161 0 -8
-9 -22 -19 -31 -16 -15 -18 -22 -9 -48 9 -25 7 -38 -11 -74 -21 -42 -22 -70
-2 -99 4 -5 9 -28 10 -50 3 -48 7 -55 28 -55 9 0 31 -11 50 -26 18 -14 37 -23
42 -20 7 5 27 -47 37 -97 2 -11 11 -45 20 -76 9 -31 17 -60 18 -66 1 -5 6 -17
10 -25 5 -8 6 -12 1 -8 -5 5 -15 -1 -22 -12 -9 -13 -26 -21 -46 -21 -75 0 -96
-2 -92 -9 2 -4 -7 -5 -20 -2 -15 2 -25 0 -25 -7 0 -7 -5 -9 -11 -5 -13 7 -59
-15 -59 -29 0 -5 11 -2 24 6 21 14 25 15 30 1 3 -9 2 -12 -5 -9 -16 10 -49
-25 -49 -52 0 -16 7 -27 20 -30 11 -3 20 -9 20 -13 0 -4 16 -11 35 -14 19 -4
35 -10 35 -14 0 -17 176 -68 270 -78 25 -2 56 -7 70 -10 28 -7 43 -10 110 -18
25 -3 77 -11 115 -16 67 -10 264 -7 295 4 36 12 92 19 190 21 128 3 170 8 301
41 98 24 157 49 160 66 1 4 2 14 3 21 3 17 -34 57 -54 57 -9 0 -22 6 -29 13
-11 10 -12 9 -6 -3 8 -13 6 -13 -7 -2 -9 7 -20 12 -24 11 -5 -1 -12 0 -16 1
-17 5 -29 8 -50 9 -18 1 -20 3 -9 10 11 7 7 16 -20 40 -19 17 -41 38 -50 46
-8 8 -30 20 -47 26 -18 6 -32 15 -32 19 0 5 -13 21 -30 37 -16 15 -30 32 -30
37 0 5 23 -13 51 -39 48 -44 53 -47 96 -42 40 4 50 1 69 -20 18 -20 34 -25 74
-27 27 0 50 -4 50 -8 0 -4 11 -2 25 4 26 12 34 28 14 28 -6 0 -9 9 -6 20 5 20
-16 29 -28 11 -7 -12 -65 -5 -79 9 -12 12 -71 13 -113 1 -28 -8 -38 -5 -70 18
-47 34 -68 59 -59 69 4 4 14 -2 23 -13 8 -11 19 -19 24 -17 6 1 8 -2 4 -8 -3
-5 1 -10 9 -10 9 0 16 -4 16 -10 0 -18 59 -12 165 16 73 19 91 17 125 -16 19
-18 38 -29 47 -26 8 3 17 6 19 6 2 0 2 10 -1 23 -5 20 2 29 49 60 51 34 55 39
44 57 -20 31 -72 46 -144 41 -29 -2 -156 -85 -147 -96 4 -4 2 -5 -5 -1 -7 4
-25 0 -39 -10 -45 -29 -92 -21 -166 26 -37 23 -65 46 -62 50 6 10 35 6 64 -9
31 -17 72 -13 126 13 61 28 90 59 108 111 14 43 15 66 2 105 -19 60 -44 78
-202 141 -180 72 -214 99 -187 151 8 16 18 28 20 25 3 -3 21 -1 41 3 35 8 35
8 29 -21 -7 -37 2 -38 15 0 6 15 21 33 34 39 24 11 25 10 25 -23 0 -34 1 -35
35 -32 40 2 43 7 15 32 -26 23 -26 51 0 65 25 13 122 106 100 96 -8 -4 -4 1
10 12 18 15 24 29 23 58 -1 20 2 32 6 25 5 -7 12 2 18 24 7 22 8 37 2 41 -6 4
-6 10 0 18 16 20 6 203 -14 261 -10 28 -30 68 -45 90 l-27 40 28 28 c48 49 63
94 63 182 0 67 -4 88 -26 130 -25 47 -78 116 -78 101 0 -4 -9 2 -21 13 -58 54
-255 94 -297 59 -9 -8 -30 -20 -45 -28 -81 -40 -151 -138 -156 -217 -1 -8 -20
-10 -68 -6 -85 8 -142 8 -168 0 -11 -3 -33 -6 -48 -6 -19 -1 -26 -5 -21 -13 4
-6 3 -8 -3 -5 -6 4 -35 -1 -64 -10 -30 -9 -56 -17 -59 -18 -19 -5 -60 -30 -60
-36 0 -4 -11 -10 -25 -13 -14 -4 -23 -10 -21 -15 3 -5 -3 -11 -13 -14 -21 -5
-135 -138 -153 -179 -7 -16 -17 -28 -21 -28 -5 0 -5 -4 -2 -10 3 -5 3 -16 -2
-22 -4 -7 -9 -22 -10 -33 -2 -11 -5 -33 -8 -50 -2 -16 1 -52 7 -80 12 -59 85
-200 122 -234 18 -17 26 -35 26 -57 0 -40 45 -198 67 -235 16 -27 16 -30 -4
-51 -11 -13 -24 -34 -28 -48 -10 -35 -24 -50 -40 -44 -7 3 -16 -3 -20 -15 -3
-12 -12 -21 -20 -21 -17 0 -14 42 5 64 9 12 10 19 1 29 -6 8 -8 17 -5 20 4 3
4 17 0 31 -4 18 -11 23 -26 19 -10 -3 -26 1 -34 8 -9 8 -22 20 -31 27 -8 7
-15 23 -16 35 -1 28 -1 28 -40 187 -18 74 -36 137 -41 138 -4 2 -6 7 -3 11 2
5 -5 39 -16 77 -27 89 -36 129 -44 183 -3 23 -10 54 -16 68 -18 48 -10 66 48
108 31 22 76 59 100 83 25 24 41 37 37 30 -4 -7 4 -4 17 8 13 12 46 36 74 55
27 19 53 37 59 41 5 3 9 26 8 50 -1 34 1 39 9 25 8 -14 14 -15 31 -6 13 7 24
7 30 1 10 -10 243 117 264 143 5 8 23 17 40 21 16 4 47 15 69 25 22 9 117 43
210 74 203 68 206 70 174 81 -35 11 -52 15 -71 17 -10 1 -18 4 -18 8 0 4 -11
6 -25 5 -13 -2 -23 0 -20 3 3 6 -103 31 -242 57 -13 2 -23 0 -23 -6 0 -5 -8
-10 -17 -10 -15 0 -16 2 -3 10 12 8 10 10 -8 10 -16 0 -21 -4 -16 -12 6 -10 3
-9 -8 0 -27 21 -234 13 -338 -13z m5 -1864 c3 -5 1 -12 -5 -16 -6 -4 -8 -10
-5 -15 3 -4 -4 -28 -15 -51 -21 -48 -26 -89 -10 -89 18 0 11 -47 -11 -71 -11
-13 -17 -18 -14 -11 4 8 3 24 -3 35 -15 32 -25 59 -28 82 -2 11 -6 30 -9 42
-4 16 1 23 15 28 11 3 24 4 29 1 4 -3 16 3 26 14 17 18 17 20 1 20 -14 0 -15
4 -6 20 11 21 25 26 35 11z"/>
</g>
</svg>
