<svg version="1.1" id="Calque_1" xmlns="http://www.w3.org/2000/svg" xmlns:xlink="http://www.w3.org/1999/xlink" x="0px" y="0px" enable-background="new 0 0 1024 768" xml:space="preserve" viewBox="427.95 311.6 167.25 154.43">
<path fill="#1D1D1B" d="M533.27,357.45c-21.97-3.8-25.81,28.07-4.12,28.95C549.31,387.33,554.23,360.77,533.27,357.45z   M517.47,371.69c-0.76-1.92,0.32-3.45,2.41-3.21c7.9-0.16,15.94-1.56,23.67,0.71C544.78,381.88,519.3,383.07,517.47,371.69z   M527.3,417.53c-1.18,0.21-2.27,0.16-3.6,0.58c1.46,0.38,2.65,0.12,3.8,0.33c1.91,3.1,6.35,2.3,8.14-0.38  c1.12-0.25,2.92,0.55,2.81-1.2C534.73,417.5,529.75,412.53,527.3,417.53z M513.92,398.62c-1.92-0.03-3.69,0.51-4.87,2.15  c-0.4,1.05-5.08,4.53-2.14,4.53c2.19-1.93,5.32-2.11,7.41-4.08C517.42,399.22,518.7,398.85,513.92,398.62z M516.61,409.89  c2.11,0.05,3.25-2.08,2.05-3.76c-1.47-1.29-8.1-1.84-6.6,1.48C513.23,409.04,514.75,409.82,516.61,409.89z M533.77,369.74  c-0.15,3.55-5.13,3.01-5.83,0.05c-2.95-0.21-5.59-0.21-8.48,0c0.42,2.97,6.41,6.17,9.38,7.21c5.12,1.32,11.8-0.63,13.21-6.22  C542.51,368.51,537.02,369.7,533.77,369.74z M550.04,399.8c-2.75-1.19-5.89,0.83-8.54,1.64c1.09,1.28,4.31,0.83,6.09,1.64  c0.46,0.11,0.9,0.13,1.33-0.09c1.61-0.71,3.34,0.55,5.01,0.06C556.13,400.86,551.27,400.52,550.04,399.8z M545.94,408.45  c-0.63,1.06,0.53,1.64,1.31,2.18c2.51,2.04,6.43-1.94,6.46-4.65C550.2,403.93,547.23,405.63,545.94,408.45z M532.87,370.08  c-0.51-1.03-1.99-0.33-2.98-0.17C530.36,371.14,532.78,371.73,532.87,370.08z M481.65,389.93c3.12,2.63,5.3,6.51,9.7,7.12  c2.17,0.31,6.2,1.77,6.19-1.71c0.59-8.44,4.43-16.61,10.74-22.33c3.94-3.28,4.99-2.65,6.53-7.85c4.19-11.05,18.02-13.93,27.32-7.43  c4.68,2.26,3.86,8.04,7.31,10.81c20.54,11.51,13.99,34.99,20.02,30.88c9.12-3.71,17.98-9.64,22.28-18.8  c5.25-11.92,0.8-27.62-9.5-35.51c-5.8-5.39-13.2-8.59-20.79-10.56c-6.97-2.42-7.72,0.9-8.56-6.86  c-7.71-24.96-46.36-19.63-43.28,7.45c-11.07,1.5-24.44,3.48-30.79,13.79c-5.09,9.23-7.33,20.2-4.05,30.44  C475.95,383.64,478.27,387.13,481.65,389.93z M518.83,331.73c-0.04-0.03-0.09-0.05-0.13-0.08c0.1-0.05,0.21-0.05,0.31-0.03  C518.95,331.66,518.89,331.7,518.83,331.73z M521.69,331.46c2.24-0.22,4.48-0.57,7.01,0.22  C526.3,331.66,524.11,331.32,521.69,331.46z M514.91,328.76c3.32-0.61,6.34-2.21,9.64-2.85c9.65-2.53,20.13,0.86,28.76,5.3  c-2.5,1.74-8.12-2.25-11.56-1.78c-4.88-0.13-9.77-1.07-14.65-0.39c-4.57,0.41-9.31,1.52-13.85,1.03  C513.96,329.11,514.02,328.92,514.91,328.76z M491.57,383.86c0.59,1.38,1.79,2.04,1.4,3.22  C491.65,385.97,491.45,385.56,491.57,383.86z M481.03,374.04c0.71,0.66,0.66,1.96,0.72,2.98  C481.04,376.11,480.8,375.16,481.03,374.04z M591.5,429.53c-4.54,0.89-7.15,5.17-8.83,9.15c-0.6,1.09-1.45-0.01-2-0.52  c-6.71-4.28-6.24-8.06-10.37,1.47c-1.03,2.27-2.22,1.21-2.84-0.64c1.49-2.36,2.88-4.69,2.8-7.6c1.14-6.06,0.69-17.2-6.2-19.55  c0.81-2.81,2.11-5.1,1.98-8c-6.25,21.56-13.35,12.19-4.18,23.99c0.18,0.27,0.41,0.69,0.32,0.94c-0.25,2.23,1.56,4.14,1,6.47  c0.09,1.38-1.18,6.12-2.63,3.84c0.38-2.66-4.08-16.7-7.21-14.56c-11.17,8.86-12.88,1.05-5.41,15.92c1.57,2.67,0.03,5.47-2.77,3.08  c-2.1-3.33-2.54-7.62-4.33-11.22c-0.67-2.47-6.7,0.63-9.18-0.16c-3.19-0.03-6.35-0.42-9.44-1.33c-1.81-0.59-4.51,10.2-5.28,12.3  c-0.31,1.52-3.26,1.79-3.14-0.08c0.32-4.81,3.74-8.69,5.19-13.15c-14.9-7.94-10.33-11.7-19.62,5.22c-1.18,1.89-4.35,2.31-3.28-0.64  c0.93-5.92,6.33-10.23,8.77-15.15c-2.92-3.12-3.74-7.41-6.41-10.59c0.23,1.87,1.17,3.32,1.72,4.97  c-10.16,2.03-12.12,14.28-6.6,21.82c1.39,1.22-0.37,2.67-1.37,3.62c-0.55-0.68-0.64-2.56-1.78-1.74c-1.57,1.13-1.3-1.75-5.37-1.98  c-7.36-15.12-14.6-30.28-21.9-45.43c-3.51-6.3-5.5-13.96-10.62-19.14c-0.55-0.35-1-0.29-1.28,0.3c-1.7,2.96-5.37,4.02-7.6,6.47  c-6.2,7-11.54,15.33-13.2,24.66c-1.05,6.1-3.17,12.09-2.27,18.35c0.44,2.98,0.87,5.96,1.23,8.95c0.61,1.8-0.16,8.91,3.16,6.13  c1.37-1.65,1.6-4,2.73-5.82c1.48-3.4,4.67-6.13,5.21-9.86c0.12-3.75,0.03-4.48,3.72-2.77c2.49-1.71,18.38-21.27,19.12-15.92  c6.16,11.94,12.74,23.65,18.93,35.56c-1.99,1.4-2.92,4.33-1.58,6.41c1.73,1.84,1.41,4.35,2.5,6.38c2.41,2.28,1.18,5.11,0.23,7.85  c-0.48,1.14-0.4,2.18,0.09,3.13v5.37h90.57c0,0,0.36-7.48,0.18-10.1c0.12-3.16-1.07-7.06-4.02-11.88c1.92,0.58,3.84,2.69,4.85,4.6  c0.71,0.72,2.05,0.67,3,0.95c1.36,0.33,2.61-0.81,3.91-0.83c1.61,0.32,3.27,0.4,4.77,1.21c3.16,1.69,4.25-3.6,2.33-5.34  c-10.52-1.31-8.12,4.35-18.48-2.61c0.96-1.13,1.62-2.36,2.77-3.27c1.82,4.03,6.48,5.76,10.3,3.37c0.5-0.41,1.19-0.62,1.93-0.46  c2.89,0.37,9.05,3.07,9.55-1.43C593.41,437.95,593.67,429.35,591.5,429.53z M431.58,412.06c-0.08-0.14-0.03-0.16,0.1-0.19  C431.69,411.97,431.71,412.05,431.58,412.06z M503.74,442.85c0-0.06-0.01-0.12-0.01-0.17c0.13,0.03,0.25,0.07,0.38,0.1  C503.99,442.8,503.86,442.83,503.74,442.85z M548.7,450.85c-1.53,2.26-4.81,1.99-7.19,2.83c-3.82,0.47-7.41-1.54-11.13-1.99  c-4.76-0.81-9.95-0.37-14.37-2.35c-3.76-1.87-7.72-4.16-11.11-6.36c5.94,1.62,11.76,3.79,17.93,4.61c4.11,0.38,7.68,3.1,11.94,2.22  c5-0.96,10.11-0.28,14.91-2.13c0.07-0.38,0.33-0.38,0.61-0.35c-2.68,2.29-7,2.51-10.6,2.82  C540.32,451.52,546.93,450.72,548.7,450.85z M553.03,445.9c-0.13,0.73-2.01,1.32-2.65,1.4c0.12-0.35,0.4-0.32,0.7-0.28  c0.73-0.68,1.77-1.2,2.67-1.37C553.62,446.03,553.35,446.02,553.03,445.9z M553.79,445.61c0.08-0.36,0.34-0.37,0.63-0.32  C554.35,445.65,554.09,445.66,553.79,445.61z M554.48,445.25c0.1-0.38,0.39-0.36,0.7-0.28c0.17-0.58,0.6-0.65,1.26-0.7  C555.74,444.89,555.21,445.18,554.48,445.25z"/>
</svg>