<?xml version="1.0" encoding="UTF-8" standalone="no"?>
<!-- Generator: Adobe Illustrator 27.8.0, SVG Export Plug-In . SVG Version: 6.00 Build 0)  -->

<svg
   version="1.1"
   id="Calque_1"
   x="0px"
   y="0px"
   viewBox="0 0 167.21729 154.42229"
   enable-background="new 0 0 1024 768"
   xml:space="preserve"
   sodipodi:docname="IZANAMI.svg"
   inkscape:version="1.3.2 (091e20e, 2023-11-25)"
   width="167.21729"
   height="154.42229"
   xmlns:inkscape="http://www.inkscape.org/namespaces/inkscape"
   xmlns:sodipodi="http://sodipodi.sourceforge.net/DTD/sodipodi-0.dtd"
   xmlns="http://www.w3.org/2000/svg"
   xmlns:svg="http://www.w3.org/2000/svg"><defs
   id="defs15" /><sodipodi:namedview
   id="namedview15"
   pagecolor="#ffffff"
   bordercolor="#000000"
   borderopacity="0.25"
   inkscape:showpageshadow="2"
   inkscape:pageopacity="0.0"
   inkscape:pagecheckerboard="0"
   inkscape:deskcolor="#d1d1d1"
   inkscape:zoom="1.0074671"
   inkscape:cx="364.2799"
   inkscape:cy="252.11743"
   inkscape:window-width="1680"
   inkscape:window-height="997"
   inkscape:window-x="0"
   inkscape:window-y="25"
   inkscape:window-maximized="1"
   inkscape:current-layer="Calque_1" />
<path
   fill="#1d1d1b"
   d="m 105.31729,45.842289 c -21.970006,-3.8 -25.810006,28.07 -4.12,28.95 20.16,0.93 25.08,-25.63 4.12,-28.95 z m -15.800006,14.24 c -0.76,-1.92 0.32,-3.45 2.41,-3.21 7.900004,-0.16 15.940006,-1.56 23.670006,0.71 1.23,12.69 -24.250006,13.88 -26.080006,2.5 z m 9.830004,45.839991 c -1.180004,0.21 -2.270004,0.16 -3.600004,0.58 1.46,0.38 2.65,0.12 3.800004,0.33 1.910002,3.1 6.350002,2.3 8.140002,-0.38 1.12,-0.25 2.92,0.55 2.81,-1.2 -3.72,0.64 -8.7,-4.33 -11.150002,0.67 z M 85.967284,87.012289 c -1.92,-0.03 -3.69,0.51 -4.87,2.15 -0.4,1.05 -5.08,4.53 -2.14,4.53 2.19,-1.93 5.32,-2.11 7.41,-4.08 3.1,-2 4.38,-2.37 -0.4,-2.6 z m 2.69,11.269996 c 2.11,0.05 3.25,-2.079996 2.05,-3.759996 -1.47,-1.29 -8.1,-1.84 -6.6,1.48 1.17,1.43 2.69,2.209996 4.55,2.279996 z M 105.81729,58.132289 c -0.15,3.55 -5.13,3.01 -5.830002,0.05 -2.950004,-0.21 -5.590004,-0.21 -8.480004,0 0.42,2.97 6.41,6.17 9.380006,7.21 5.12,1.32 11.8,-0.63 13.21,-6.22 0.46,-2.27 -5.03,-1.08 -8.28,-1.04 z m 16.27,30.06 c -2.75,-1.19 -5.89,0.83 -8.54,1.64 1.09,1.28 4.31,0.83 6.09,1.64 0.46,0.11 0.9,0.13 1.33,-0.09 1.61,-0.71 3.34,0.55 5.01,0.06 2.2,-2.19 -2.66,-2.53 -3.89,-3.25 z m -4.1,8.65 c -0.63,1.06 0.53,1.639996 1.31,2.179996 2.51,2.039995 6.43,-1.939996 6.46,-4.649996 -3.51,-2.05 -6.48,-0.35 -7.77,2.47 z m -13.07,-38.37 c -0.51,-1.03 -1.99,-0.33 -2.98,-0.17 0.47,1.23 2.89,1.82 2.98,0.17 z m -51.220006,19.85 c 3.12,2.63 5.3,6.51 9.7,7.12 2.17,0.31 6.2,1.77 6.19,-1.71 0.59,-8.44 4.43,-16.61 10.74,-22.33 3.94,-3.28 4.99,-2.65 6.53,-7.85 4.19,-11.05 18.020006,-13.93 27.320006,-7.43 4.68,2.26 3.86,8.04 7.31,10.81 20.54,11.51 13.99,34.99 20.02,30.88 9.12,-3.71 17.98,-9.64 22.28,-18.8 5.25,-11.92 0.8,-27.62 -9.5,-35.51 -5.8,-5.39 -13.2,-8.59 -20.79,-10.56 -6.97,-2.42 -7.72,0.9 -8.56,-6.86 -7.71,-24.9600001 -46.360006,-19.6300001 -43.280006,7.45 -11.07,1.5 -24.44,3.48 -30.79,13.79 -5.09,9.23 -7.33,20.2 -4.05,30.44 1.18,4.27 3.5,7.76 6.88,10.56 z m 37.18,-58.2 c -0.04,-0.03 -0.09,-0.05 -0.13,-0.08 0.1,-0.05 0.21,-0.05 0.31,-0.03 -0.06,0.04 -0.12,0.08 -0.18,0.11 z m 2.86,-0.27 c 2.24,-0.22 4.48,-0.57 7.010006,0.22 -2.400006,-0.02 -4.590006,-0.36 -7.010006,-0.22 z m -6.78,-2.7 c 3.32,-0.61 6.34,-2.21 9.64,-2.85 9.650006,-2.53 20.130006,0.86 28.760006,5.3 -2.5,1.74 -8.12,-2.25 -11.56,-1.78 -4.88,-0.13 -9.77,-1.07 -14.650002,-0.39 -4.570004,0.41 -9.310004,1.52 -13.850004,1.03 0.71,-0.96 0.77,-1.15 1.66,-1.31 z m -23.34,55.1 c 0.59,1.38 1.79,2.04 1.4,3.22 -1.32,-1.11 -1.52,-1.52 -1.4,-3.22 z m -10.54,-9.82 c 0.71,0.66 0.66,1.96 0.72,2.98 -0.71,-0.91 -0.95,-1.86 -0.72,-2.98 z M 163.54729,117.92228 c -4.54,0.89 -7.15,5.17 -8.83,9.15 -0.6,1.09 -1.45,-0.01 -2,-0.52 -6.71,-4.28 -6.24,-8.06 -10.37,1.47 -1.03,2.27 -2.22,1.21 -2.84,-0.64 1.49,-2.36 2.88,-4.69 2.8,-7.6 1.14,-6.06 0.69,-17.2 -6.2,-19.55 0.81,-2.809991 2.11,-5.099991 1.98,-7.999991 -6.25,21.559991 -13.35,12.189991 -4.18,23.989991 0.18,0.27 0.41,0.69 0.32,0.94 -0.25,2.23 1.56,4.14 1,6.47 0.09,1.38 -1.18,6.12 -2.63,3.84 0.38,-2.66 -4.08,-16.7 -7.21,-14.56 -11.17,8.86 -12.88,1.05 -5.41,15.92 1.57,2.67 0.03,5.47 -2.77,3.08 -2.1,-3.33 -2.54,-7.62 -4.33,-11.22 -0.67,-2.47 -6.7,0.63 -9.18,-0.16 -3.19,-0.03 -6.350006,-0.42 -9.440006,-1.33 -1.81,-0.59 -4.51,10.2 -5.28,12.3 -0.31,1.52 -3.26,1.79 -3.14,-0.08 0.32,-4.81 3.74,-8.69 5.19,-13.15 -14.9,-7.94 -10.33,-11.7 -19.62,5.22 -1.18,1.89 -4.35,2.31 -3.28,-0.64 0.93,-5.92 6.33,-10.23 8.77,-15.15 -2.92,-3.12 -3.74,-7.41 -6.41,-10.589991 0.23,1.869996 1.17,3.319991 1.72,4.969991 -10.16,2.03 -12.12,14.28 -6.6,21.82 1.39,1.22 -0.37,2.67 -1.37,3.62 -0.55,-0.68 -0.64,-2.56 -1.78,-1.74 -1.57,1.13 -1.3,-1.75 -5.37,-1.98 -7.36,-15.12 -14.6,-30.279991 -21.9,-45.429991 -3.51,-6.3 -5.5,-13.96 -10.62,-19.14 -0.55,-0.35 -1,-0.29 -1.28,0.3 -1.7,2.96 -5.37,4.02 -7.6,6.47 -6.1999998,7 -11.54,15.33 -13.2,24.66 -1.05,6.1 -3.17000001,12.089991 -2.27,18.349991 0.44,2.98 0.87,5.96 1.23,8.95 0.61,1.8 -0.16,8.91 3.16,6.13 1.37,-1.65 1.6,-4 2.73,-5.82 1.48,-3.4 4.67,-6.13 5.21,-9.86 0.12,-3.75 0.03,-4.48 3.72,-2.77 2.49,-1.71 18.38,-21.269991 19.12,-15.919991 6.16,11.939991 12.74,23.649991 18.93,35.559991 -1.99,1.4 -2.92,4.33 -1.58,6.41 1.73,1.84 1.41,4.35 2.5,6.38 2.41,2.28 1.18,5.11 0.23,7.85 -0.48,1.14 -0.4,2.18 0.09,3.13 v 5.37 h 90.570006 c 0,0 0.36,-7.48 0.18,-10.1 0.12,-3.16 -1.07,-7.06 -4.02,-11.88 1.92,0.58 3.84,2.69 4.85,4.6 0.71,0.72 2.05,0.67 3,0.95 1.36,0.33 2.61,-0.81 3.91,-0.83 1.61,0.32 3.27,0.4 4.77,1.21 3.16,1.69 4.25,-3.6 2.33,-5.34 -10.52,-1.31 -8.12,4.35 -18.48,-2.61 0.96,-1.13 1.62,-2.36 2.77,-3.27 1.82,4.03 6.48,5.76 10.3,3.37 0.5,-0.41 1.19,-0.62 1.93,-0.46 2.89,0.37 9.05,3.07 9.55,-1.43 -1.76,-2.29 -1.5,-10.89 -3.67,-10.71 z m -159.920006,-17.47 c -0.08,-0.14 -0.03,-0.16 0.1,-0.19 0.01,0.1 0.03,0.18 -0.1,0.19 z m 72.16,30.79 c 0,-0.06 -0.01,-0.12 -0.01,-0.17 0.13,0.03 0.25,0.07 0.38,0.1 -0.12,0.02 -0.25,0.05 -0.37,0.07 z m 44.960006,8 c -1.53,2.26 -4.81,1.99 -7.19,2.83 -3.82,0.47 -7.41,-1.54 -11.13,-1.99 -4.760006,-0.81 -9.950006,-0.37 -14.370006,-2.35 -3.76,-1.87 -7.72,-4.16 -11.11,-6.36 5.94,1.62 11.76,3.79 17.93,4.61 4.110004,0.38 7.680006,3.1 11.940006,2.22 5,-0.96 10.11,-0.28 14.91,-2.13 0.07,-0.38 0.33,-0.38 0.61,-0.35 -2.68,2.29 -7,2.51 -10.6,2.82 0.63,1.37 7.24,0.57 9.01,0.7 z m 4.33,-4.95 c -0.13,0.73 -2.01,1.32 -2.65,1.4 0.12,-0.35 0.4,-0.32 0.7,-0.28 0.73,-0.68 1.77,-1.2 2.67,-1.37 -0.13,0.38 -0.4,0.37 -0.72,0.25 z m 0.76,-0.29 c 0.08,-0.36 0.34,-0.37 0.63,-0.32 -0.07,0.36 -0.33,0.37 -0.63,0.32 z m 0.69,-0.36 c 0.1,-0.38 0.39,-0.36 0.7,-0.28 0.17,-0.58 0.6,-0.65 1.26,-0.7 -0.7,0.62 -1.23,0.91 -1.96,0.98 z"
   id="path1" />















</svg>
